<?xml version="1.0" encoding="utf-8"?>
<!-- Generator: Adobe Illustrator 19.1.0, SVG Export Plug-In . SVG Version: 6.00 Build 0)  -->
<svg version="1.1" id="Слой_1" xmlns="http://www.w3.org/2000/svg" xmlns:xlink="http://www.w3.org/1999/xlink" x="0px" y="0px"
	 viewBox="0 0 100 100" style="enable-background:new 0 0 100 100;" xml:space="preserve">
<g>
	<path fill="#ffffff" stroke="#ffffff" d="M82.6,83.5c-5.8-0.8-12.4-1.1-19.3-1.4c-6-0.3-12.4-0.6-18.4-1.3c1.7-1.9,2.6-4.5,2.6-7.1c0-1-0.1-1.8-0.3-2.5
		c2.2-1.1,3.6-3.3,3.8-6.1c0.1-1.8-0.3-3.6-1.3-5.2c2.5-1.1,4.2-3.3,4.5-6.2c0.4-3.6-1.5-7.9-5.5-8.8c-0.1,0-0.2,0-0.2-0.1
		c-3.9-6.4,0.6-21.9,8.3-28.2c1.3-1.1,3.3-2.3,5-2.1c0,0,0,0,0.1,0c1.2,0.2,2.2,1.2,2.8,1.9c-0.5,1.4-1.2,3.9-2,8.3
		c-2.5,15,8.2,29.6,24.3,33.5C86.5,61.2,85.4,67.8,82.6,83.5 M48.4,53.8c-0.5,1.4-1.5,2.1-3.4,2c-8.8-0.3-25-5.3-27-7.8
		c-1.4-1.7,0.3-4.1,1.9-6.2c0.2-0.3,0.4-0.5,0.5-0.7c2.8-3.8,7.1-7.4,10.2-6.9c0,0,0.1,0,0.1,0c2.9,0.6,7.9,2,10.7,2.8
		c-0.1,2.2,0.1,4.3,0.5,6.2c-2.9-0.8-5.3-1.6-6.2-2c-0.6-0.6-1.6-1-2.5-0.9c-1.6,0.1-2.7,1.3-2.4,2.7c0.2,1,0.6,3.2,16.8,6.7
		C48,50,48.9,51.9,48.4,53.8 M43.6,66.9c-9.1-0.5-25-5.3-27-7.8c-1.2-1.5-0.1-3.5,1.3-5.3c3.2,1.6,7.5,3,11.9,4.2
		c0.2,0.1,0.5,0.3,0.8,0.3c4.2,1.2,8,2.1,12.9,2.7c1.2,0.2,1.9,2,1.8,3.5C45.3,64.8,45.1,67,43.6,66.9 M40.8,77.1
		c-0.9,1.4-1.8,1.4-2.1,1.4c-6.1,0-17.6-4-18.8-6.2c-0.9-1.6,0.1-3.8,1-5.5c2.7,1,5.7,1.9,8.7,2.6c0,0,0,0,0.1,0
		c1.2,0.4,7.9,2,12,2.6C41.9,73.1,41.9,75.4,40.8,77.1 M93.7,54.7l-0.1-0.1l-3.1-0.5C76,51.7,66.1,39,68.3,25.8c1.1-6.3,2-8,2-8
		l0.8-1.1l-0.6-1.2c-0.3-0.5-2.6-4.7-7.5-5.7c-3.3-0.7-6.8,0.4-10.2,3.2c-5,4.1-9.1,11.7-10.7,19.1c-3-0.9-7.5-2.1-10.4-2.7
		c-0.1,0-0.2,0-0.3-0.1c-7.4-1.2-13.5,5.8-15.8,8.9c-0.1,0.2-0.3,0.3-0.4,0.6c-1.7,2.1-5.6,7.1-1.8,11.8C11.5,53,8.4,57.6,12,61.9
		c0.7,0.9,2,1.8,3.6,2.7c-1.4,2.5-3,6.3-0.9,9.9c0.2,0.4,0.6,0.8,0.9,1.2c0.1,0.2,0.2,0.3,0.4,0.4c5.3,4.8,12.9,7.4,21.7,8.9
		c8,1.3,16.8,1.8,25.5,2.2c7.8,0.4,15.2,0.7,21.3,1.8l3.2,0.5L93.7,54.7z"/>
</g>
</svg>
