<?xml version="1.0" encoding="utf-8"?>
<!-- Generator: Adobe Illustrator 19.1.0, SVG Export Plug-In . SVG Version: 6.00 Build 0)  -->
<svg version="1.1" id="Слой_1" xmlns="http://www.w3.org/2000/svg" xmlns:xlink="http://www.w3.org/1999/xlink" x="0px" y="0px"
	 viewBox="0 0 100 100" style="enable-background:new 0 0 100 100;" xml:space="preserve">
<g>
	<path stroke="#ffffff" fill="#ffffff" d="M50,88c16.3,0,29.5-13.3,29.5-29.5c0-17.7-18.2-36-28-45.8c-0.8-0.8-2.2-0.8-3,0c-9.9,9.8-28.1,28.1-28.1,45.8
		C20.5,74.8,33.7,88,50,88z M50,17.1c9.6,9.6,25.3,26.2,25.3,41.4c0,13.9-11.4,25.3-25.3,25.3c-13.9,0-25.3-11.4-25.3-25.3
		C24.7,43.3,40.4,26.8,50,17.1z"/>
	<path stroke="#ffffff" fill="#ffffff" d="M50,78.5c0.6,0,1.1-0.5,1.1-1.1c0-0.6-0.5-1.1-1.1-1.1c-9.9,0-18-8-18-18c0-0.6-0.5-1.1-1.1-1.1s-1.1,0.5-1.1,1.1
		C30,69.5,39,78.5,50,78.5z"/>
</g>
</svg>
