<?xml version="1.0" encoding="utf-8"?>
<!-- Generator: Adobe Illustrator 19.1.0, SVG Export Plug-In . SVG Version: 6.00 Build 0)  -->
<svg version="1.1" id="Слой_1" xmlns="http://www.w3.org/2000/svg" xmlns:xlink="http://www.w3.org/1999/xlink" x="0px" y="0px"
	 viewBox="0 0 100 100" style="enable-background:new 0 0 100 100;" xml:space="preserve">
<g>
	<path stroke="#ffffff" fill="#ffffff" d="M37.3,18.8c-0.4-0.4-0.9-0.6-1.4-0.9c-0.6-0.2-1.2-0.3-1.8-0.3c-0.6,0-1.1,0.1-1.5,0.3c-0.4,0.2-0.8,0.4-1.1,0.7
		c-0.3,0.3-0.5,0.6-0.7,1c-0.2,0.4-0.2,0.8-0.2,1.2c0,0.5,0.1,0.9,0.2,1.3c0.1,0.3,0.3,0.6,0.6,0.9c0.2,0.2,0.5,0.4,0.8,0.6
		c0.3,0.1,0.6,0.3,0.9,0.4c0.3,0.1,0.6,0.2,0.9,0.3c0.3,0.1,0.6,0.2,0.8,0.3c0.2,0.1,0.4,0.3,0.6,0.5c0.1,0.2,0.2,0.4,0.2,0.7
		c0,0.5-0.2,0.9-0.5,1.2c-0.3,0.3-0.8,0.4-1.4,0.4c-0.4,0-0.7-0.1-1-0.2c-0.3-0.1-0.5-0.2-0.7-0.3c-0.2-0.1-0.4-0.2-0.5-0.3
		c-0.1-0.1-0.3-0.2-0.4-0.2c-0.1,0-0.2,0-0.3,0.1c-0.1,0-0.1,0.1-0.2,0.2l-0.6,1c0.2,0.2,0.5,0.4,0.7,0.6s0.6,0.3,0.9,0.5
		c0.3,0.1,0.6,0.2,1,0.3c0.3,0.1,0.7,0.1,1,0.1c0.6,0,1.2-0.1,1.6-0.3c0.5-0.2,0.9-0.4,1.2-0.8c0.3-0.3,0.6-0.7,0.7-1.1
		c0.2-0.4,0.3-0.9,0.3-1.4c0-0.5-0.1-0.8-0.2-1.2c-0.1-0.3-0.3-0.6-0.6-0.8c-0.2-0.2-0.5-0.4-0.8-0.5c-0.3-0.1-0.6-0.3-0.9-0.4
		c-0.3-0.1-0.6-0.2-0.9-0.3c-0.3-0.1-0.6-0.2-0.8-0.3c-0.2-0.1-0.4-0.3-0.6-0.4c-0.1-0.2-0.2-0.4-0.2-0.6c0-0.2,0-0.4,0.1-0.6
		c0.1-0.2,0.2-0.3,0.3-0.4c0.1-0.1,0.3-0.2,0.5-0.3c0.2-0.1,0.5-0.1,0.7-0.1c0.3,0,0.6,0,0.8,0.1c0.2,0.1,0.4,0.2,0.6,0.3
		c0.2,0.1,0.3,0.2,0.4,0.3c0.1,0.1,0.2,0.1,0.3,0.1c0.1,0,0.2,0,0.3-0.1c0.1,0,0.1-0.1,0.2-0.2L37.3,18.8z"/>
	<path stroke="#ffffff" fill="#ffffff" d="M48.6,17.8h-2.1v4.7h-5.2v-4.7h-2.1v11h2.1V24h5.2v4.8h2.1V17.8z"/>
	<path stroke="#ffffff" fill="#ffffff" d="M61.4,21.7c-0.1-0.5-0.3-0.9-0.5-1.4c-0.2-0.4-0.5-0.8-0.8-1.1c-0.3-0.3-0.7-0.6-1.1-0.9c-0.4-0.2-0.9-0.4-1.4-0.5
		c-0.5-0.1-1-0.2-1.6-0.2c-0.8,0-1.6,0.1-2.3,0.4c-0.7,0.3-1.3,0.7-1.8,1.2c-0.5,0.5-0.9,1.1-1.1,1.8c-0.3,0.7-0.4,1.4-0.4,2.2
		c0,0.8,0.1,1.6,0.4,2.2c0.3,0.7,0.7,1.3,1.1,1.8c0.5,0.5,1.1,0.9,1.8,1.2c0.7,0.3,1.4,0.4,2.3,0.4c0.8,0,1.6-0.1,2.3-0.4
		c0.7-0.3,1.3-0.7,1.8-1.2c0.5-0.5,0.9-1.1,1.1-1.8c0.3-0.7,0.4-1.4,0.4-2.2C61.6,22.7,61.6,22.2,61.4,21.7z M59.3,24.9
		c-0.2,0.5-0.4,0.9-0.7,1.2c-0.3,0.3-0.7,0.6-1.1,0.8c-0.4,0.2-0.9,0.3-1.5,0.3c-0.5,0-1-0.1-1.5-0.3c-0.4-0.2-0.8-0.4-1.1-0.8
		c-0.3-0.3-0.5-0.7-0.7-1.2c-0.2-0.5-0.2-1-0.2-1.6c0-0.6,0.1-1.1,0.2-1.6c0.2-0.5,0.4-0.9,0.7-1.2c0.3-0.3,0.7-0.6,1.1-0.8
		c0.4-0.2,0.9-0.3,1.5-0.3c0.5,0,1,0.1,1.5,0.3c0.4,0.2,0.8,0.4,1.1,0.8c0.3,0.3,0.5,0.7,0.7,1.2c0.2,0.5,0.2,1,0.2,1.6
		C59.5,23.9,59.4,24.4,59.3,24.9z"/>
	<path stroke="#ffffff" fill="#ffffff" d="M67,24.9c0.7,0,1.3-0.1,1.9-0.3c0.5-0.2,1-0.4,1.3-0.7c0.4-0.3,0.6-0.7,0.8-1.1c0.2-0.4,0.3-0.9,0.3-1.5
		c0-0.5-0.1-1-0.3-1.4c-0.2-0.4-0.4-0.8-0.8-1.1c-0.4-0.3-0.8-0.6-1.3-0.7c-0.5-0.2-1.2-0.3-1.9-0.3h-3.6v11h2.1v-3.9H67z
		 M65.5,19.3H67c0.4,0,0.7,0,1,0.1c0.3,0.1,0.5,0.2,0.7,0.4c0.2,0.2,0.3,0.4,0.4,0.6c0.1,0.2,0.1,0.5,0.1,0.8c0,0.3,0,0.6-0.1,0.8
		c-0.1,0.3-0.2,0.5-0.4,0.6c-0.2,0.2-0.4,0.3-0.7,0.4c-0.3,0.1-0.6,0.1-1,0.1h-1.5V19.3z"/>
	<path stroke="#ffffff" fill="#ffffff" d="M46.6,81.4h26.7c0.7,0,1.3-0.6,1.3-1.4V49.2c0-0.8-0.6-1.4-1.3-1.4H46.6c-0.7,0-1.3,0.6-1.3,1.4V80
		C45.3,80.8,45.9,81.4,46.6,81.4z M48.5,51h22.8v27.2H48.5V51z"/>
	<path stroke="#ffffff" fill="#ffffff" d="M66.7,57.5c-0.6-0.3-1.3-0.2-1.7,0.4L58.5,69c-0.3,0.6-0.2,1.3,0.4,1.7c0.2,0.1,0.4,0.2,0.6,0.2c0.4,0,0.8-0.2,1-0.6
		l6.6-11.1C67.5,58.6,67.3,57.8,66.7,57.5z"/>
	<path stroke="#ffffff" fill="#ffffff" d="M65.2,67.2c-0.6-0.3-1.3-0.2-1.7,0.4l-3.7,6.1c-0.3,0.6-0.2,1.3,0.4,1.7c0.2,0.1,0.4,0.2,0.6,0.2c0.4,0,0.8-0.2,1-0.6
		l3.7-6.1C65.9,68.3,65.7,67.6,65.2,67.2z"/>
	<path stroke="#ffffff" fill="#ffffff" d="M37.4,75.8v-5.4c0-0.7-0.5-1.2-1.2-1.2c-0.7,0-1.2,0.5-1.2,1.2v5.4c0,0.7,0.5,1.2,1.2,1.2C36.8,77,37.4,76.4,37.4,75.8z"/>
	<path stroke="#ffffff" fill="#ffffff" d="M81.5,41.3c0-1.3-1.1-2.4-2.4-2.4h-5V36h5.7c0.7,0,1.3-0.6,1.3-1.4V12.4c0-0.8-0.6-1.4-1.3-1.4H20.9
		c-0.7,0-1.3,0.6-1.3,1.4v22.1c0,0.8,0.6,1.4,1.3,1.4h6.1v2.9h-5c-1.3,0-2.4,1.1-2.4,2.4v44.2c0,1.3,1.1,2.4,2.4,2.4l5.7,0
		c1.7,0,2.3-1.1,2.3-2.1V58h9.2l0,25.6c0,0,0,2.3,0,2.3c0,1.7,1,2.2,2.4,2.2l37.5,0c1.3,0,2.4-1.1,2.4-2.4L81.5,41.3L81.5,41.3z
		 M22.8,32.7V14.3h55v18.4H22.8z M70.8,36v2.9H30.2V36H70.8z M42.3,84.7V56.2c0-0.8-0.6-1.4-1.3-1.4H27.9c-0.7,0-1.3,0.6-1.3,1.4
		l0,28.6h-1h-1h-1.9V42.1h55.5v42.6L42.3,84.7z"/>
	<path stroke="#ffffff" fill="#ffffff" d="M39.8,47.7h-11c-0.9,0-1.7,0.8-1.7,1.7c0,0.9,0.8,1.7,1.7,1.7h11c0.9,0,1.7-0.8,1.7-1.7C41.5,48.5,40.7,47.7,39.8,47.7z"/>
</g>
</svg>
