<?xml version="1.0" encoding="utf-8"?>
<!-- Generator: Adobe Illustrator 19.1.0, SVG Export Plug-In . SVG Version: 6.00 Build 0)  -->
<svg version="1.1" id="Слой_1" xmlns="http://www.w3.org/2000/svg" xmlns:xlink="http://www.w3.org/1999/xlink" x="0px" y="0px"
	 viewBox="0 0 100 100" style="enable-background:new 0 0 100 100;" xml:space="preserve">
<g>
	<path stroke="#ffffff" fill="#ffffff" d="M46,51.1c0.9,0,1.5-0.7,1.5-1.6V42c0-0.9-0.7-1.6-1.5-1.6c-0.9,0-1.5,0.7-1.5,1.6v7.4C44.5,50.4,45.1,51.1,46,51.1z"/>
	<path stroke="#ffffff" fill="#ffffff" d="M74.8,11H25.2c-4.3,0-7.7,3.6-7.7,8.1V89h65V19.1C82.5,14.6,79,11,74.8,11z M79.4,19.1v6.6h-7.7v-1.4v-2v0h-1.9v0H66H64v2
		v1.4h-0.9v-1.4v-2v0h-1.9v0h-3.8h-1.9v2v1.4h-4V14.2h23.2C77.3,14.2,79.4,16.4,79.4,19.1z M51.5,29h4v1.3h1.9V29h3.8v8.4H54v2h22.9
		v-2h-5.3V29h7.7v50.3H51.5V29z M61.2,25.7h-3.8v-1.4h3.8V25.7z M66,30.3V29h3.8v8.4h-6.6V29H64v1.3H66z M69.7,25.7H66v-1.4h3.8
		V25.7z M25.2,14.2h23.2v65H20.6V19.1C20.6,16.4,22.7,14.2,25.2,14.2z M20.6,85.7v-3.2h58.8v3.2H20.6z"/>
</g>
</svg>
