<?xml version="1.0" encoding="utf-8"?>
<!-- Generator: Adobe Illustrator 19.1.0, SVG Export Plug-In . SVG Version: 6.00 Build 0)  -->
<svg version="1.1" id="Слой_1" xmlns="http://www.w3.org/2000/svg" xmlns:xlink="http://www.w3.org/1999/xlink" x="0px" y="0px"
	 viewBox="0 0 100 100" style="enable-background:new 0 0 100 100;" xml:space="preserve">
<g>
	<path d="M35,87.5H65c4.1,0,7.5-3.3,7.5-7.4V19.9c0-4.1-3.4-7.4-7.5-7.4H35c-4.1,0-7.5,3.3-7.5,7.4v60.1
		C27.6,84.3,30.8,87.5,35,87.5z M30,20c0-2.7,2.2-5,5-5H65c2.7,0,5,2.2,5,5v60.1c0,2.7-2.2,5-5,5H35c-2.7,0-5-2.2-5-5V20z
		 M33.2,75.9h33.4c0.7,0,1.2-0.5,1.2-1.2V25.6c0-0.7-0.5-1.2-1.2-1.2H33.2c-0.7,0-1.2,0.5-1.2,1.2v49.1C32,75.3,32.6,75.9,33.2,75.9
		z M34.5,26.8h31v46.6h-31V26.8z M45.4,20.3c0-0.7,0.5-1.2,1.2-1.2h6.5c0.7,0,1.2,0.5,1.2,1.2c0,0.7-0.5,1.2-1.2,1.2h-6.5
		C46,21.6,45.4,21,45.4,20.3z M49.9,76.6c-2.1,0-4,1.8-4,3.9c0,2.1,1.8,3.9,4,3.9c2.1,0,4-1.8,4-3.9C53.9,78.4,52.1,76.6,49.9,76.6z
		 M49.9,82c-0.9,0-1.5-0.7-1.5-1.5s0.7-1.5,1.5-1.5c0.9,0,1.5,0.7,1.5,1.5S50.7,82,49.9,82z M59,36.2L49.7,40l-9.4-3.8
		c-0.2-0.1-0.3-0.1-0.4-0.1c-0.3,0-0.6,0.1-0.9,0.3c-0.3,0.3-0.4,0.9-0.3,1.4l9.9,23.5l0,0c0,0.1,0.1,0.2,0.2,0.3c0,0,0,0,0.1,0.1
		c0.1,0.1,0.2,0.2,0.3,0.2l0,0c0.1,0.1,0.2,0.1,0.3,0.2h0.1c0.1,0,0.2,0.1,0.3,0.1c0.2,0,0.3,0,0.3-0.1h0.1c0.1,0,0.2-0.1,0.3-0.2
		l0,0c0.1-0.1,0.2-0.2,0.3-0.2c0,0,0,0,0.1-0.1c0.1-0.1,0.1-0.2,0.2-0.3l0,0l9.9-23.5c0.2-0.4,0.1-1-0.3-1.4
		C60.1,36.2,59.5,36.1,59,36.2z M48.5,54.8l-6.4-15.1l6.4,2.6V54.8z M50.9,54.8V42.2l6.4-2.6L50.9,54.8z M61.1,65.5
		c0,0.7-0.5,1.2-1.2,1.2H40.1c-0.7,0-1.2-0.5-1.2-1.2c0-0.7,0.5-1.2,1.2-1.2h19.8C60.6,64.3,61.1,64.9,61.1,65.5z"/>
</g>
</svg>
