
<svg version="1.1" id="Слой_1" xmlns="http://www.w3.org/2000/svg" xmlns:xlink="http://www.w3.org/1999/xlink" x="0px" y="0px"
	 viewBox="0 0 100 100" style="enable-background:new 0 0 100 100;" xml:space="preserve">
<g>
	<path fill="#ffffff" d="M14.2,13.7C25.5,2.4,44,2.3,55.4,13.5c10.8,10.6,11.5,27.4,1.9,38.7l-0.1,0.1c-1.9,2.2-2.7,3-4.3,4.1
		c-11.4,8.9-28.1,8.2-38.7-2.1C2.9,43.2,2.8,25,14.2,13.7z M19.4,49.3c8.6,8.4,22.4,8.4,31-0.1c8.5-8.5,8.5-22.1-0.1-30.5
		c-8.6-8.4-22.4-8.3-31,0.1C10.8,27.2,10.9,40.9,19.4,49.3z"/>
	<path fill="#ffffff" d="M95.3,87L88,94.8l-31.8-34l5.3-5.2L95.3,87z"/>
</g>
</svg>
