<?xml version="1.0" encoding="utf-8"?>
<!-- Generator: Adobe Illustrator 19.1.0, SVG Export Plug-In . SVG Version: 6.00 Build 0)  -->
<svg version="1.1" id="Слой_1" xmlns="http://www.w3.org/2000/svg" xmlns:xlink="http://www.w3.org/1999/xlink" x="0px" y="0px"
	 viewBox="0 0 445.1 445" style="enable-background:new 0 0 445.1 445;" xml:space="preserve">
<g>
	<path fill="#ffffff" stroke="#ffffff" d="M326.5,173.2l-28.5-28.5L194.5,248.1l-43.4-43.4l-28.5,28.5l71.9,71.9l0,0l0,0L326.5,173.2z"/>
	<path fill="#ffffff" stroke="#ffffff" d="M224.5,19c-109.9,0-199,89.1-199,199s89.1,199,199,199c109.9,0,199-89.1,199-199C423.6,108.1,334.5,19,224.5,19z
		 M224.5,374.5c-86.4,0-156.5-70.1-156.5-156.5c0-86.4,70.1-156.5,156.5-156.5S381,131.6,381,218C381,304.4,311,374.5,224.5,374.5z"
		/>
</g>
<g>
	<path fill="#ffffff" stroke="#ffffff" d="M324.5,177.2l-28.5-28.5L192.5,252.1l-43.4-43.4l-28.5,28.5l71.9,71.9l0,0l0,0L324.5,177.2z"/>
	<path fill="#ffffff" stroke="#ffffff" d="M222.5,23c-109.9,0-199,89.1-199,199s89.1,199,199,199c109.9,0,199-89.1,199-199C421.6,112.1,332.5,23,222.5,23z
		 M222.5,378.5c-86.4,0-156.5-70.1-156.5-156.5c0-86.4,70.1-156.5,156.5-156.5S379,135.6,379,222C379,308.4,309,378.5,222.5,378.5z"
		/>
</g>
</svg>
