<?xml version="1.0" encoding="utf-8"?>
<!-- Generator: Adobe Illustrator 19.1.0, SVG Export Plug-In . SVG Version: 6.00 Build 0)  -->
<svg version="1.1" id="Слой_1" xmlns="http://www.w3.org/2000/svg" xmlns:xlink="http://www.w3.org/1999/xlink" x="0px" y="0px"
	 viewBox="0 0 100 100" style="enable-background:new 0 0 100 100;" xml:space="preserve">
<style type="text/css">
	.st0{fill:none;stroke:#ffffff;stroke-miterlimit:10;}
</style>
<g>
	<path fill="#ffffff" stroke="#ffffff" d="M55.5,69.5h-32v-14h32V69.5z M25.5,67.5h28v-10h-28V67.5z"/>
	<path fill="#ffffff" stroke="#ffffff" d="M70.5,69.5h-17V31h17V69.5z M55.5,67.5h13V33h-13V67.5z"/>
	<rect fill="#ffffff" x="54.5" y="43" width="15" height="2"/>
	<rect fill="#ffffff" x="57.5" y="47" width="2" height="4"/>
	<rect fill="#ffffff" x="57.5" y="37" width="2" height="4"/>
	<path fill="#ffffff" stroke="#ffffff" d="M45.5,47h-12V22.5h12V47z M35.5,45h8V24.5h-8V45z"/>
	<rect fill="#ffffff" x="31.5" y="45" width="16" height="2"/>
	<rect fill="#ffffff" x="37.5" y="52.5" width="4" height="2"/>
	<g>
		<rect fill="#ffffff" x="46.5" y="56.5" width="2" height="12"/>
		<rect fill="#ffffff" x="30.5" y="56.5" width="2" height="12"/>
	</g>
</g>
<g>
	<line stroke="#ffffff" class="st0" x1="24.8" y1="75.4" x2="69.7" y2="75.4"/>
	<polygon fill="#ffffff" points="25.3,76.9 22.7,75.4 25.3,73.9 	"/>
	<polygon fill="#ffffff" points="68.2,76.9 70.7,75.4 68.2,73.9 	"/>
</g>
<g>
	<line class="st0" x1="75.9" y1="67.2" x2="75.9" y2="22.2"/>
	<polygon fill="#ffffff" points="77.3,66.7 75.9,69.2 74.4,66.7 	"/>
	<polygon fill="#ffffff" points="77.3,23.8 75.9,21.2 74.4,23.8 	"/>
</g>
<path  fill="#ffffff" stroke="#ffffff" d="M43.3,83.3c0,0.1,0,0.2,0.1,0.2c0.1,0.1,0.1,0.1,0.2,0.1h5.2c-0.1,0.1-0.2,0.2-0.2,0.3c-0.1,0.1-0.1,0.2-0.2,0.3l-4.2,8.3
	h0.9c0.2,0,0.3,0,0.4-0.1c0.1-0.1,0.2-0.2,0.3-0.3l4.2-8.4c0-0.1,0.1-0.2,0.1-0.3c0-0.1,0.1-0.2,0.1-0.4v-0.6h-6.8V83.3z"/>
<path  fill="#ffffff" stroke="#ffffff" d="M89,45.6c-0.1-0.4-0.3-0.7-0.6-1c-0.3-0.3-0.6-0.5-1-0.6c-0.4-0.2-0.9-0.2-1.4-0.2c-0.2,0-0.5,0-0.7,0
	c-0.2,0-0.5,0.1-0.8,0.1l0.5-2.6h3.2c0.3,0,0.5-0.1,0.6-0.2c0.1-0.1,0.2-0.3,0.2-0.4v-0.5h-4.8l-0.8,4.7l0.8,0.2
	c0.3-0.1,0.6-0.2,0.8-0.2c0.3,0,0.5-0.1,0.8-0.1c0.4,0,0.7,0,1,0.1c0.3,0.1,0.5,0.2,0.7,0.4c0.2,0.2,0.3,0.4,0.4,0.6
	c0.1,0.3,0.1,0.5,0.1,0.8c0,0.4-0.1,0.7-0.2,1c-0.1,0.3-0.3,0.5-0.5,0.7c-0.2,0.2-0.4,0.4-0.7,0.5c-0.3,0.1-0.6,0.2-0.9,0.2
	c-0.3,0-0.6,0-0.8-0.1c-0.2-0.1-0.4-0.2-0.6-0.2c-0.2-0.1-0.3-0.2-0.4-0.2c-0.1-0.1-0.2-0.1-0.3-0.1c-0.1,0-0.2,0.1-0.3,0.2
	l-0.4,0.5c0.2,0.1,0.3,0.3,0.5,0.4c0.2,0.1,0.4,0.2,0.7,0.3c0.2,0.1,0.5,0.2,0.8,0.2c0.3,0.1,0.6,0.1,0.8,0.1c0.5,0,1-0.1,1.4-0.2
	c0.4-0.2,0.8-0.4,1.1-0.7c0.3-0.3,0.6-0.7,0.8-1.1c0.2-0.4,0.3-0.9,0.3-1.4C89.2,46.4,89.1,46,89,45.6z"/>
</svg>
