<?xml version="1.0" encoding="utf-8"?>
<!-- Generator: Adobe Illustrator 19.1.0, SVG Export Plug-In . SVG Version: 6.00 Build 0)  -->
<svg version="1.1" id="Слой_1" xmlns="http://www.w3.org/2000/svg" xmlns:xlink="http://www.w3.org/1999/xlink" x="0px" y="0px"
	 viewBox="-429 218 100 125" style="enable-background:new -429 218 100 125;" xml:space="preserve">
<style type="text/css">
	.st0{fill:none;}
	.st1{fill:none;stroke:#231F20;stroke-width:2.727;stroke-linecap:round;stroke-miterlimit:10;}
</style>
<g>
	<path d="M-336.6,298.1l-18.5-15.2c-0.9-0.8-0.8-2.3,0.3-2.8l8-4.2c1.4-0.7,1.2-2.7-0.3-3.2l-42-12.5c-1.4-0.4-2.7,1.1-2,2.4
		l20.4,38.8c0.7,1.4,2.7,1.2,3.2-0.3l3-10.3c0.3-1.2,1.8-1.6,2.7-0.8l19,15.5c0.7,0.6,1.8,0.5,2.4-0.2l4-4.8
		C-335.8,299.7-335.9,298.7-336.6,298.1z"/>
	<g>
		<line class="st0" x1="-407.8" y1="246.9" x2="-415.7" y2="240.4"/>
		<line class="st1" x1="-407.8" y1="246.9" x2="-415.7" y2="240.4"/>
	</g>
	<g>
		<line class="st0" x1="-411.8" y1="256" x2="-422" y2="254.3"/>
		<line class="st1" x1="-411.8" y1="256" x2="-422" y2="254.3"/>
	</g>
	<g>
		<line class="st0" x1="-410.9" y1="265.8" x2="-420.5" y2="269.4"/>
		<line class="st1" x1="-410.9" y1="265.8" x2="-420.5" y2="269.4"/>
	</g>
	<g>
		<line class="st0" x1="-405.1" y1="273.9" x2="-411.6" y2="281.8"/>
		<line class="st1" x1="-405.1" y1="273.9" x2="-411.6" y2="281.8"/>
	</g>
	<g>
		<line class="st0" x1="-396.1" y1="277.9" x2="-397.8" y2="288.1"/>
		<line class="st1" x1="-396.1" y1="277.9" x2="-397.8" y2="288.1"/>
	</g>
	<g>
		<line class="st0" x1="-375.1" y1="252.3" x2="-365.4" y2="248.7"/>
		<line class="st1" x1="-375.1" y1="252.3" x2="-365.4" y2="248.7"/>
	</g>
	<g>
		<line class="st0" x1="-380.8" y1="244.3" x2="-374.3" y2="236.3"/>
		<line class="st1" x1="-380.8" y1="244.3" x2="-374.3" y2="236.3"/>
	</g>
	<g>
		<line class="st0" x1="-389.9" y1="240.2" x2="-388.2" y2="230.1"/>
		<line class="st1" x1="-389.9" y1="240.2" x2="-388.2" y2="230.1"/>
	</g>
	<g>
		<line class="st0" x1="-399.7" y1="241.2" x2="-403.3" y2="231.5"/>
		<line class="st1" x1="-399.7" y1="241.2" x2="-403.3" y2="231.5"/>
	</g>
</g>
</svg>
