<?xml version="1.0" encoding="utf-8"?>
<!-- Generator: Adobe Illustrator 19.1.0, SVG Export Plug-In . SVG Version: 6.00 Build 0)  -->
<svg version="1.1" id="Слой_1" xmlns="http://www.w3.org/2000/svg" xmlns:xlink="http://www.w3.org/1999/xlink" x="0px" y="0px"
	 viewBox="0 0 100 100" style="enable-background:new 0 0 100 100;" xml:space="preserve">
<g>
	<path stroke="#ffffff" fill="#ffffff" d="M91,34.4l-18.9-19c-1.8-1.8-4.9-1.8-6.8,0l-9.2,9.3l-6.7,6.7l-5.3-5.3c0,0,0,0-0.1-0.1c0,0,0,0-0.1-0.1l-9.3-9.4
		c-1.9-1.9-5.2-1.9-7.1,0l-18.6,19c-1.9,1.9-1.9,5.2,0,7.1l9.3,9.4c0,0,0,0,0.1,0.1c0,0,0,0,0.1,0.1l8.7,8.8l-0.3,0.3
		c-0.2,0.2-0.3,0.4-0.4,0.6c-0.9,0.9-1.4,2.1-1.4,3.4c0,1.3,0.5,2.5,1.4,3.4l15.4,15.5c0.9,0.9,2.1,1.4,3.3,1.4
		c1.3,0,2.5-0.5,3.3-1.4l0.9-0.9l1.5,1.5l0.1,0.1c0.5,0.5,1.6,1.1,2.9,1.1c0.9,0,2-0.2,3.3-1.5l15.2-15.4c2.6-2.6,1.8-5.3,0.3-7
		l-1.2-1.2l10.3-10.4l9.2-9.3c0.9-0.9,1.4-2.2,1.4-3.5C92.4,36.6,91.9,35.3,91,34.4z M11.7,38.3l18.8-18.9c0.2-0.2,0.4-0.3,0.8-0.3
		c0.3,0,0.5,0.1,0.8,0.3l7.9,8L19.6,47.7l-7.9-8C11.3,39.4,11.3,38.7,11.7,38.3z M45,81.6c-0.1,0-0.3,0-0.5-0.2L29.1,65.9
		c-0.2-0.2-0.2-0.4-0.2-0.5s0-0.3,0.2-0.5l0.5-0.5l0,0l1.1-1.1l2.5-2.5l0.1-0.1c0.1-0.1,0.3-0.1,0.4-0.1c0.1,0,0.3,0,0.5,0.2
		l15.4,15.5c0.3,0.3,0.3,0.9,0,1.1l-1.8,1.8l-2.3,2.3C45.4,81.6,45.1,81.6,45,81.6z M69.5,66.2L54.3,81.7C53.9,82,53.8,82,53.7,82
		c0,0-0.1,0-0.2-0.1l-1.4-1.4l0.3-0.3l0,0c0.1-0.1,0.2-0.2,0.3-0.4c0.1-0.1,0.2-0.2,0.3-0.3c0.1-0.1,0.1-0.2,0.1-0.3
		c0.1-0.2,0.2-0.3,0.3-0.5l0,0c0.6-1.7,0.3-3.8-1.1-5.2L37.1,57.8c-0.2-0.2-0.4-0.4-0.8-0.6C36.2,57,36.1,57,36,57
		c-0.2-0.1-0.3-0.2-0.5-0.3c-0.1,0-0.2-0.1-0.3-0.1c-0.2-0.1-0.3-0.1-0.5-0.1c-0.1,0-0.2,0-0.3,0c-0.2,0-0.4-0.1-0.6-0.1
		c-0.2,0-0.3,0-0.5,0c-0.1,0-0.3,0-0.4,0c-0.3,0-0.5,0.1-0.8,0.2h-0.1c-0.5,0.2-1.1,0.5-1.6,1l-0.3,0.3l-7.4-7.5l20.3-20.1l3.9,3.9
		L35.9,45c-1.4,1.4-2,3.9,0,5.9l4.2,4.2c0.2,0.2,0.4,0.3,0.6,0.4c0.6,0.4,1.4,0.6,2.1,0.6c0.2,0,0.4,0,0.8-0.1c0,0,0,0,0.1,0
		c0.2,0,0.4-0.1,0.6-0.2h0.1c0.2-0.1,0.4-0.2,0.6-0.3c0,0,0.1,0,0.1-0.1c0.2-0.1,0.4-0.3,0.6-0.5l7-7l16.5,16.7l0.2,0.2
		C70.1,65.1,70.3,65.5,69.5,66.2z M68.7,58.1l-12.9-13l1.8-1.8c0.4-0.4,0.5-0.9,0.5-1.4c0-0.5-0.2-1-0.5-1.4c-0.8-0.8-2-0.8-2.8,0
		l-3.2,3.2l-8.4,8.4c-0.1,0.1-0.2,0.1-0.2,0.2l0,0l-4.2-4.2c-0.1-0.1-0.1-0.1-0.1-0.2c0-0.1,0.1-0.1,0.1-0.2l18.8-18.9L68.8,40
		l8.9,9L68.7,58.1z M88.2,38.4l-7.8,7.9L64.1,30l-3.9-3.9l7.8-7.9c0.2-0.2,0.4-0.2,0.6-0.2c0.1,0,0.4,0,0.6,0.2l18.9,19
		c0.2,0.2,0.2,0.4,0.2,0.6C88.4,38,88.4,38.2,88.2,38.4z"/>
</g>
</svg>
