<?xml version="1.0" encoding="utf-8"?>
<!-- Generator: Adobe Illustrator 19.1.0, SVG Export Plug-In . SVG Version: 6.00 Build 0)  -->
<svg version="1.1" id="Слой_1" xmlns="http://www.w3.org/2000/svg" xmlns:xlink="http://www.w3.org/1999/xlink" x="0px" y="0px"
	 viewBox="0 0 306.8 121" style="enable-background:new 0 0 306.8 121;" xml:space="preserve">
<g>
	<path d="M224.3,98.9c-0.2-0.5-0.8-0.7-1.4-0.5c-0.2,0.1-3.9,1.8-4.7,4.6c-0.4,1.2-0.2,2.4,0.5,3.6c0.2,0.3,0.5,0.5,0.9,0.5
		c0.2,0,0.4,0,0.5-0.1c0.5-0.3,0.6-0.9,0.3-1.4c-0.4-0.7-0.5-1.3-0.3-1.9c0.5-1.6,2.8-3,3.6-3.4C224.3,100.1,224.5,99.5,224.3,98.9z
		"/>
	<path d="M215.5,98.6c-1.4,1.1-3.6,4.3-2,8c0.2,0.4,0.5,0.6,0.9,0.6c0.1,0,0.3,0,0.4-0.1c0.5-0.2,0.8-0.8,0.5-1.4
		c-1.4-3.2,1.3-5.5,1.4-5.6c0.4-0.4,0.5-1,0.1-1.4C216.6,98.3,215.9,98.2,215.5,98.6z"/>
	<path d="M284.2,99.4c0-0.6-0.5-1-1-1h-11.6c-0.6,0-1,0.5-1,1c0,0.6,0.5,1,1,1h11.6C283.8,100.4,284.2,99.9,284.2,99.4z"/>
	<path d="M284.9,103.5H276c-0.6,0-1,0.5-1,1c0,0.6,0.5,1,1,1h8.9c0.6,0,1-0.5,1-1C286,103.9,285.5,103.5,284.9,103.5z"/>
	<path d="M289.1,68.9c-0.1-0.1-0.3-0.2-0.4-0.2l-6.6-1.1c5.2-20.1,0.6-36-4.8-39.4c-1.5-0.9-2.7-1.4-3.8-1.5c0.4-0.5,0.7-1,1-1.6
		c1-1.9,1.3-4.3,0.8-6.7c-0.8-4.6-4.1-7.9-7.7-7.9c-0.3,0-0.7,0-1,0.1c-1.9,0.4-3.6,1.7-4.6,3.7c-1,1.9-1.2,4.3-0.8,6.7
		c0.8,4.3,3.7,7.5,7,7.9c-0.3,0.3-0.6,0.6-1,0.9c-6.5,3.1-11.4,0.8-11.8,0.4c-0.2-0.2-0.7-0.9-1.4-1.7c-2.3-3-4.7-6.1-6.1-7.1
		c-2.1-1.7-5.2-1.7-10.1-1.5c-2.6,0.1-4.5,1.2-5.2,3c-0.4,1.2-0.2,2.6,0.7,3.3c1.3,1.1,3.6,1,6,0.9c1.6-0.1,3.5-0.1,4.2,0.3
		c1.3,0.8,3.6,4.3,5.1,6.6c0.7,1.1,1.3,2,1.7,2.6c1.6,2.1,7.5,3.8,10.2,4.5c-2,6.4-7.6,20.3-13.6,33.2c0,0,0,0,0,0l0,0
		c-5.6,12-11.6,23.2-15.5,26.9c-1.9,0.2-7.8,1.2-7.8,4.7c0,0.9,0.4,2.5,3.5,3.3c1.1,0.3,2.4,0.4,3.8,0.4c4.2,0,9.3-1.2,10.7-3.6
		c1.3-2.3,7.6-13,9.7-16.7c0.4,0.7,0.8,1.4,1.2,2.1c2,3.4,4.1,6.9,5.6,10.7c-3.2,0.5-9.1,1.9-9.4,5c-0.1,1.7,1.9,2.8,5.9,3.2
		c0.9,0.1,2.1,0.2,3.3,0.2c4.9,0,11.4-1,11.9-4.6c0.2-1.8-1.5-5.5-4.7-11.8c-3-6-7.5-15-6.3-17.4c0.8-1.6,2.1-2.7,3.5-3.9
		c2.4-2,5-4.2,5.9-9.1c0.6-3.1,4.6-14,6.4-18.6c0.7,1.4,1.4,3.4,1.5,5.4c0.1,1.9-0.6,5.6-1.2,9.2c-0.7,4.1-1.4,7.9-1.3,10
		c0.1,1.2,0.9,3.2,5.2,3.9c3.8,0.6,10-0.1,10.9-2.3C290.1,70.9,290.4,69.8,289.1,68.9z M263.3,20.6c-0.4-1.9-0.1-3.9,0.6-5.4
		c0.7-1.4,1.8-2.4,3.1-2.6c0.2,0,0.4-0.1,0.7-0.1c2.6,0,5,2.7,5.7,6.2c0.4,1.9,0.1,3.9-0.6,5.4c-0.7,1.4-1.8,2.4-3.1,2.6
		C266.9,27.3,264,24.5,263.3,20.6z M240,105.1c-1.1,2-8.2,3.3-12.2,2.2c-0.6-0.1-1.9-0.6-1.9-1.3c0-1.3,3.7-2.4,6.3-2.7
		c0.2,0,0.4-0.1,0.6-0.3c3.8-3.4,9.1-12.9,14.3-23.6c0.5,2.5,1.8,5.2,3.3,7.9C249.3,89.3,241.5,102.4,240,105.1z M278.2,71.2
		c-1-0.3-2.2-0.8-2.3-1.8c-0.2-1.8,0.5-5.7,1.2-9.4c0.7-3.9,1.4-7.5,1.3-9.6c-0.2-4.3-2.7-8.2-2.9-8.4c-0.2-0.3-0.6-0.5-1-0.5
		c-0.4,0-0.7,0.3-0.8,0.6c-0.3,0.7-6.5,16.8-7.3,21c-0.8,4.2-2.9,6-5.2,7.9c-1.5,1.3-3.1,2.6-4.1,4.6c-1.5,3.1,1.7,9.9,6.3,19.2
		c2.2,4.4,4.7,9.3,4.5,10.6c-0.1,0.9-1.5,1.7-3.8,2.2c-5.4,1.3-12.3,0.4-13.2-0.6c0.3-1.3,4.9-2.7,8.9-3.2c0.3,0,0.6-0.2,0.7-0.5
		c0.2-0.3,0.2-0.6,0.1-0.9c-1.6-4.3-3.9-8.3-6.2-12.2c-3.5-5.9-6.6-11.1-5.4-15.4c6.6-14.2,12.4-29.2,13.9-34.4c0,0,0,0,0,0
		c0,0,0,0,0,0c0-0.1,0-0.1,0-0.2c0-0.1,0-0.1,0-0.2c0-0.1,0-0.1-0.1-0.2c0-0.1,0-0.1-0.1-0.2c0-0.1-0.1-0.1-0.1-0.1
		c0-0.1-0.1-0.1-0.1-0.1c-0.1,0-0.1-0.1-0.2-0.1c-0.1,0-0.1-0.1-0.2-0.1c0,0,0,0,0,0c0,0,0,0,0,0c-3.3-0.8-9-2.5-10.1-4
		c-0.4-0.5-1-1.4-1.7-2.5c-2.3-3.5-4.1-6.3-5.7-7.3c-1.3-0.7-3.2-0.7-5.3-0.6c-1.7,0.1-3.9,0.2-4.6-0.4c-0.2-0.2-0.3-0.6-0.1-1.1
		c0.3-1,1.6-1.6,3.3-1.6c4.4-0.1,7.2-0.2,8.7,1.1c1.2,0.9,4.1,4.7,5.7,6.7c0.7,0.9,1.2,1.6,1.4,1.8c1.3,1.4,7.4,3.5,14.4,0
		c0.1,0,0.2-0.1,0.3-0.2c2.9-2.7,4-3.7,7.6-1.4c4.3,2.7,9.2,17.9,3.6,38.2c-0.1,0.3,0,0.6,0.1,0.8c0.2,0.2,0.4,0.4,0.7,0.5l7,1.2
		C286.2,71.4,281.6,72.2,278.2,71.2z"/>
	<path d="M228.8,26.8c0.2,0.1,0.4,0.2,0.6,0.2c0.3,0,0.7-0.2,0.9-0.5c0.3-0.5,0.2-1.1-0.3-1.4c-0.5-0.3-0.8-0.7-0.9-1.3
		c-0.2-1.3,0.7-3,1.1-3.6c0.3-0.5,0.2-1.1-0.2-1.4c-0.5-0.3-1.1-0.2-1.4,0.2c-0.2,0.3-1.9,2.7-1.5,5.1
		C227.2,25.3,227.8,26.2,228.8,26.8z"/>
	<path d="M223.3,24.4c0.2,0,0.3,0,0.5-0.1c0.5-0.3,0.7-0.9,0.4-1.4c-0.9-1.7-0.3-2.3-0.3-2.4c0.4-0.3,0.5-1,0.2-1.4
		c-0.3-0.5-1-0.5-1.4-0.2c-0.1,0.1-2,1.6-0.3,5C222.6,24.2,223,24.4,223.3,24.4z"/>
	<path d="M292.6,65c-0.4-0.3-1.1-0.3-1.4,0.2c-0.3,0.5-0.3,1.1,0.2,1.4c0,0,3.6,2.8,2.1,5c-0.3,0.5-0.2,1.1,0.3,1.4
		c0.2,0.1,0.4,0.2,0.6,0.2c0.3,0,0.7-0.2,0.9-0.5C297.2,69.7,294.5,66.4,292.6,65z"/>
	<path d="M298.8,65.1c-0.4-0.4-1-0.4-1.4,0c-0.4,0.4-0.4,1,0,1.5c0,0,2,2.1,1.1,4c-0.3,0.5,0,1.1,0.5,1.4c0.1,0.1,0.3,0.1,0.5,0.1
		c0.4,0,0.7-0.2,0.9-0.6C301.9,68.2,299,65.2,298.8,65.1z"/>
	<path d="M170.6,104.9c-2.3-1-3.8-2.7-4.3-3.4c0.3-2.8,1.6-14.8,0.6-18.5c-0.8-2.7-2.9-6-5.1-9.5c-2.8-4.4-5.9-9.3-5.7-12.5
		c0.4-6.1-0.5-11.6-1.5-15.9c1,1,2,1.8,3.1,2.2c1.1,0.4,2.2,0.3,3.2-0.3c4.8-2.7,9.6-8,10.5-9c3.7-1.7,3.8-4,3.6-5.2
		c-0.4-2.2-2.7-4-4.3-4.1c-1.8-0.1-3.2,0.4-4.1,1.5c-0.9,1.2-0.9,2.7-0.8,3.6c-0.8,0.6-1.7,1.4-2.6,2.2c-0.9,0.9-2.4,2.2-3.2,2.5
		c-0.3-0.7-0.6-1.4-0.9-2.1c-2.4-5.4-5.5-12.2-11.5-10c-1.3,0.5-2.8,1-4.4,1.5c1.1-1.8,1.6-4.1,1.5-6.5c-0.2-5.6-3.8-10-8.2-10
		l-0.2,0c-2.2,0.1-4.2,1.3-5.7,3.3c-1.4,2-2.1,4.5-2,7.2c0.1,4.3,2.2,7.8,5.1,9.3c-2,0.7-3.8,1.5-5.3,2.1c-2.6,1.2-7,3.2-5.3,11.6
		c0.9,4.3,0.7,5.3,0.5,5.6c0,0-0.1,0-0.2,0c-2,0-8.2-1.7-10.7-2.5c-0.7-0.6-2.9-2.2-4.9-1.6c-0.8,0.2-1.9,1-2.5,3
		c-0.7,2.5-0.3,4.4,1.1,5.4c0.6,0.4,1.3,0.7,2.1,0.7c0.8,0,1.7-0.2,2.5-0.7c2.2,0.9,10.2,4,15.2,4c1.1,0,2-0.1,2.7-0.5
		c0.8-0.4,1.3-1,1.6-1.8c0.4-1.6,0.6-3.9,0.5-6.1c1.4,4.4,2.7,9.5,2.5,12.7c-0.1,2.4-1.8,6.1-3.5,9.6c-1.8,3.9-3.5,7.5-3.7,10.3
		c-0.3,4.5,3,15.8,3.9,18.4c-1,1.4-3.3,4.7-2.8,7.1c0.2,0.8,0.7,1.5,1.4,1.9c0.5,0.3,1.1,0.4,1.7,0.4c1.3,0,2.7-0.5,4.1-1.6
		c2.4-1.8,4.9-5.3,4-9.4c-0.2-1-0.5-2.4-0.9-3.9c-0.9-4-2.4-10.2-2.2-11.7c0.4-3.1,5.6-11.8,9.4-13c0.8-0.2,1.3-0.1,1.9,0.4
		c7.3,7.5,12,13.7,10.5,30.5c-0.1,0.5-0.4,1.9,0.5,3.5c0.9,1.7,2.9,3,5.7,3.8c3.5,0.9,8.2,1.9,9.1-0.6
		C173.5,107.3,171.8,105.4,170.6,104.9z M131,21.9c-0.1-2.2,0.5-4.3,1.6-5.9c1-1.5,2.4-2.3,3.9-2.4l0.1,0c3.1,0,5.8,3.5,5.9,7.9
		c0.1,2.2-0.5,4.3-1.6,5.9c-1,1.5-2.4,2.3-3.9,2.4l-0.1,0C133.8,29.8,131.1,26.3,131,21.9z M164.4,107.5c-2.2-0.6-3.7-1.5-4.3-2.6
		c-0.6-1-0.3-1.9-0.3-2c0-0.1,0-0.2,0.1-0.3c1.6-17.7-3.6-24.6-11.1-32.3c-1.1-1.1-2.5-1.5-4.1-1c-4.9,1.6-10.3,11-10.9,14.8
		c-0.2,1.8,0.8,6.5,2.2,12.5c0.4,1.5,0.7,2.9,0.9,3.9c0.6,2.9-1.2,5.7-3.2,7.2c-1.3,1-2.7,1.4-3.5,1c-0.2-0.1-0.3-0.2-0.3-0.4
		c-0.3-1.3,1.4-4.1,2.7-5.7c0.2-0.3,0.3-0.7,0.2-1c0-0.1-4.2-13.5-3.9-18.2c0.2-2.4,1.8-6.1,3.5-9.6c1.8-3.9,3.5-7.6,3.7-10.4
		c0.4-6.8-5.4-21.4-5.7-22c-0.2-0.6-0.9-0.8-1.4-0.6c-0.5,0.2-0.7,0.7-0.7,1.2l0,0c0,0.1,1.6,9.7,0.4,14.1c0,0.1-0.1,0.3-0.4,0.4
		c-2.5,1.2-11.5-1.7-16.5-3.8l0,0c-0.3-0.1-0.7-0.1-1,0.1c-1.1,0.7-2.1,0.8-2.6,0.4c-0.6-0.4-0.7-1.6-0.3-3.1c0.2-0.6,0.4-1.3,1-1.5
		c0.9-0.3,2.4,0.8,3,1.3l0.2,0.2l0.2,0.1c0.9,0.3,8.8,2.6,11.5,2.6c1.1,0,1.6-0.4,1.9-0.8c0.9-1.1,0.9-2.9,0-7.4
		c-1.4-6.7,1.5-8,4-9.1c3.5-1.6,9.1-3.5,14-5.2c1.8-0.6,3.5-1.2,4.9-1.7c3.8-1.4,6,2.8,8.8,8.8c0.4,0.8,0.7,1.6,1.1,2.3
		c0.3,0.6,0.7,1,1.3,1.1c1.4,0.3,2.9-1,5.2-3.1c1.1-1,2.1-2,2.8-2.3c0,0,0.1,0,0.1-0.1c0.1,0,0.1-0.1,0.2-0.1c0,0,0.1-0.1,0.1-0.2
		c0-0.1,0.1-0.1,0.1-0.2c0-0.1,0-0.1,0.1-0.2c0-0.1,0-0.1,0-0.2c0-0.1,0-0.1,0-0.2c0,0,0-0.1,0-0.1c0,0-0.4-1.6,0.2-2.5
		c0.4-0.5,1.1-0.7,2.2-0.6c0.4,0,2,1,2.2,2.3c0.2,1.3-1.3,2.3-2.6,2.9c0,0,0,0,0,0c-0.1,0-0.1,0.1-0.2,0.1c-0.1,0-0.1,0.1-0.2,0.1
		c0,0,0,0,0,0c-0.1,0.1-5.2,6-10.1,8.7c-0.4,0.2-0.9,0.3-1.4,0.1c-2.3-0.8-4.9-5-6.5-8c-0.6-1.4-1.1-2.2-1.1-2.4
		c-0.3-0.5-0.9-0.7-1.5-0.5c-0.5,0.3-0.8,0.9-0.5,1.4c0.1,0.3,0.5,1.1,1.1,2.2c1.6,3.9,4.7,12.5,4.1,22.9c-0.2,3.9,3,8.9,6.1,13.8
		c2.1,3.4,4.1,6.5,4.8,8.9c0.8,3-0.2,14-0.7,18c0,0.3,0,0.5,0.2,0.7c0.1,0.1,1.9,3,5.5,4.5c0.4,0.2,1.1,1,1.1,1.3
		C170.9,108.2,169.9,108.9,164.4,107.5z"/>
	<path d="M166.8,58.9c0.1,0,0.2,0.1,0.3,0.1c0.5,0,0.9-0.3,1.1-0.8c2.1-6.4-1.9-9.2-2-9.3c-0.5-0.3-1.2-0.2-1.5,0.3
		c-0.3,0.5-0.2,1.2,0.3,1.5c0,0,2.8,1.9,1.2,6.8C165.9,58.1,166.2,58.7,166.8,58.9z"/>
	<path d="M171.6,43.9c-0.3-0.5-1-0.7-1.5-0.3c-0.5,0.3-0.7,1-0.3,1.5c0,0.1,4.8,7.5,3.1,12.5c-0.2,0.6,0.1,1.2,0.7,1.4
		c0.1,0,0.2,0.1,0.4,0.1c0.5,0,0.9-0.3,1-0.7C176.9,52.3,171.8,44.2,171.6,43.9z"/>
	<path d="M123.1,78.8c0.3-0.5,0.1-1.2-0.5-1.5c-0.5-0.3-1.2-0.1-1.5,0.5c-0.2,0.4-4.4,8.8,0.2,13.4c0.2,0.2,0.5,0.3,0.8,0.3
		c0.3,0,0.6-0.1,0.8-0.3c0.4-0.4,0.4-1.1,0-1.6C119.5,86.2,123.1,78.8,123.1,78.8z"/>
	<path d="M115.9,77.2c-0.6-0.2-1.2,0-1.4,0.6c-0.1,0.2-2.4,6,0,10.8c0.2,0.4,0.6,0.6,1,0.6c0.2,0,0.3,0,0.5-0.1
		c0.5-0.3,0.8-0.9,0.5-1.5c-2-3.9,0-9,0-9C116.7,78.1,116.5,77.5,115.9,77.2z"/>
	<path d="M51.9,104.5c-2.1-0.9-3.4-2.5-3.9-3.1c0.4-2.6,2.2-14,1.3-17.4c-1-3.6-2.6-6.6-4.3-9.8c-0.9-1.7-1.9-3.5-2.8-5.5
		c3.3-1.6,9.9-5.4,10-9.5C52.2,55,49,44.5,45,41.3c-1.8-1.4-4.8-1.8-8-2.2c2.1-1.2,3.6-3.7,4-6.6c0.3-2.2-0.1-4.3-1-6
		c-1-1.8-2.5-2.9-4.3-3.2c-3.6-0.5-7,2.9-7.6,7.4c-0.4,3.1,0.5,5.9,2.3,7.6c-1.2-0.2-2.2-0.5-2.9-1c-2.5-1.6-5-8.2-5.1-9.1
		c-0.2-2.1,3-7.6,5.2-10.8c1.8-0.6,2.9-2.4,2.7-4.3c-0.2-1.8-1.8-3.7-4.8-3.7c0,0,0,0,0,0c-1.3,0-2.4,0.4-3.1,1.2
		c-1,1-1.1,2.4-1.1,3.1c-1.8,2.3-7.9,10.5-7,14.2c0.8,3.3,2.6,6.9,4.4,10.5c0.9,1.8,1.7,3.4,2.4,5c1.7,3.9,0.7,10.9-0.1,16.4
		c-0.4,2.3-0.7,4.6-0.8,6.4c-0.1,2.6,0.7,5.8,1.5,8.9c0.8,3,1.6,6.1,1.4,8.4c-0.1,2.2-1.2,6.2-2.2,10.1c-1,3.8-2,7.5-2.1,9.4
		c-0.1,2.2,1.5,4.1,4.9,5.6c1.1,0.5,5.7,1.8,7.5,0.4c0.6-0.5,0.9-1.2,0.8-2.1c-0.2-1.2-1.3-2.2-2.4-3.2c-0.6-0.5-1.5-1.3-1.6-1.7
		c-0.3-1.9,1.1-5.6,2.3-8.8c0.9-2.5,1.8-4.9,2-6.5c0.2-1.3,0-3.5-0.1-5.8c-0.1-2.2-0.4-5.9,0-7.1c0.1,0.1,0.2,0.1,0.3,0.3l0.3,0.3
		c6.4,6.7,10.7,11.1,7.3,27.7c-0.1,0.4-0.4,1.8,0.4,3.3c0.9,1.6,2.6,2.8,5.2,3.5c1.7,0.4,3.6,0.9,5.3,0.9c1.5,0,2.7-0.4,3.1-1.5
		C54.5,106.7,52.9,105,51.9,104.5z M30.1,31.1c0.4-3.2,2.6-5.7,4.9-5.7c0.1,0,0.3,0,0.4,0c1.1,0.2,2.1,0.9,2.8,2.1
		c0.7,1.3,1,3,0.8,4.7c-0.5,3.4-2.8,6-5.3,5.7C31.3,37.6,29.6,34.5,30.1,31.1z M46.1,106.9c-2-0.5-3.3-1.4-3.9-2.4
		c-0.5-0.9-0.3-1.8-0.3-1.8c0,0,0-0.1,0-0.1c3.6-17.7-1.2-22.7-7.8-29.5l-0.3-0.3c-0.7-0.7-1.3-1.1-1.9-1.1c-0.2,0-0.4,0-0.6,0.1
		c-1.6,0.7-1.5,3.8-1.2,9.3c0.1,2.1,0.3,4.3,0.1,5.4c-0.2,1.4-1,3.7-1.9,6.1c-1.4,3.7-2.8,7.5-2.4,9.9c0.2,1,1.2,1.9,2.2,2.9
		c0.7,0.6,1.7,1.5,1.8,2c0,0.1,0,0.1,0,0.1c-0.5,0.5-3.8,0.1-5.5-0.6c-2.5-1.1-3.7-2.4-3.7-3.7c0.1-1.7,1-5.4,2-9
		c1-4,2.1-8.1,2.3-10.5c0.2-2.6-0.7-5.9-1.5-9c-0.8-3-1.6-6-1.4-8.3c0.1-1.7,0.4-3.9,0.8-6.2c0.9-6.1,2-13,0-17.5
		c-0.7-1.6-1.6-3.3-2.5-5.1c-1.7-3.4-3.5-7-4.3-10c-0.5-2.3,3.9-9.1,6.9-12.8c0.2-0.2,0.2-0.5,0.2-0.7c0,0-0.1-1.2,0.6-2
		c0.4-0.4,0.9-0.6,1.6-0.6c0,0,0,0,0,0c1.6,0,2.6,0.7,2.8,1.9c0.1,0.9-0.3,1.9-1.5,2.2c-0.2,0.1-0.5,0.2-0.6,0.4
		c-0.6,0.9-6.2,8.9-5.8,12.5c0.1,1.4,2.9,8.6,6,10.6c2,1.3,5.4,1.6,8.9,1.9c3.4,0.3,6.9,0.6,8.5,1.9c3.4,2.7,6.4,12.6,6.3,16.1
		c-0.1,3-6.4,6.8-10.4,8.5c-0.1,0-0.1,0.1-0.2,0.1c-1.5,1.2-2.2,1.2-2.4,1.1c-0.3-0.1-0.7-0.7-1-1.7c-0.2-0.7-0.2-1.2,0-1.4
		c0.4-0.4,1.7-0.4,2.6-0.2c0.3,0.1,0.5,0,0.8-0.1c0.6-0.3,5.9-3.4,7.3-6.4c1.6-3.4-3.7-12.5-4.7-14.3c-0.2-0.4-0.7-0.6-1.1-0.5
		c-0.4,0.1-0.7,0.4-0.8,0.9c-0.2,2-0.4,3.6-0.6,4.9c-0.6,4.5-0.8,6.8-0.5,13c0,0.1,0,0.2,0.1,0.3c-0.1,0.1-0.2,0.1-0.3,0.2
		c-0.9-0.2-3-0.4-4.1,0.8c-0.8,0.8-0.9,2-0.4,3.4c0.3,1.1,1,2.5,2.3,3c1.3,0.4,2.7-0.3,3.9-1.2c0.9,2,1.9,3.8,2.8,5.6
		c1.6,3.1,3.2,6,4.1,9.4c0.8,2.7-0.7,13.2-1.4,17c0,0.2,0,0.5,0.1,0.7c0.1,0.1,1.8,2.7,5,4.2c0.4,0.2,1,1,1,1.2
		C52.1,107.5,51.2,108.3,46.1,106.9z M41.4,50.3c0.1-0.6,0.1-1.2,0.2-1.8c2,3.8,3.8,8.3,3.1,9.7c-0.6,1.2-2.3,2.7-3.9,3.8
		C40.6,56.6,40.9,54.4,41.4,50.3z"/>
	<path d="M16,97.8c0.3-0.5,0.1-1.1-0.4-1.4c-0.5-0.3-1.1-0.1-1.4,0.4c-0.2,0.3-3.7,6.6,0.2,9.9c0.2,0.2,0.4,0.2,0.7,0.2
		c0.3,0,0.6-0.1,0.8-0.4c0.4-0.4,0.3-1.1-0.1-1.4C13.1,103,15.9,97.9,16,97.8z"/>
	<path d="M10.8,97.9c0.3-0.4,0.3-1.1-0.2-1.4c-0.4-0.3-1.1-0.3-1.4,0.2c-1.4,1.9-3.3,6.3,0.1,9.9c0.2,0.2,0.5,0.3,0.7,0.3
		c0.2,0,0.5-0.1,0.7-0.3c0.4-0.4,0.4-1,0.1-1.4C7.7,102.1,10.6,98.1,10.8,97.9z"/>
	<path d="M55.1,52.6c-0.4-0.4-1.1-0.3-1.4,0.1c-0.4,0.4-0.3,1.1,0.1,1.4c1.2,1.1,1.8,2.3,1.7,3.7c-0.2,2.9-2.9,5.9-5.2,7.5
		c-0.5,0.3-0.6,1-0.2,1.4c0.2,0.3,0.5,0.4,0.8,0.4c0.2,0,0.4-0.1,0.6-0.2c2.8-2,5.9-5.4,6.1-9C57.6,55.9,56.8,54.1,55.1,52.6z"/>
	<path d="M58.2,50.2c-0.4-0.4-1.1-0.3-1.4,0.2c-0.4,0.4-0.3,1.1,0.2,1.4c0,0,4.5,3.7,2.8,7.6c-0.2,0.5,0,1.1,0.5,1.3
		c0.1,0.1,0.3,0.1,0.4,0.1c0.4,0,0.8-0.2,0.9-0.6C63.9,54.8,58.4,50.4,58.2,50.2z"/>
</g>
</svg>
