<?xml version="1.0" encoding="utf-8"?>
<!-- Generator: Adobe Illustrator 19.1.0, SVG Export Plug-In . SVG Version: 6.00 Build 0)  -->
<svg version="1.1" id="Слой_1" xmlns="http://www.w3.org/2000/svg" xmlns:xlink="http://www.w3.org/1999/xlink" x="0px" y="0px"
	 viewBox="0 0 252.8 100" style="enable-background:new 0 0 252.8 100;" xml:space="preserve">
<style type="text/css">
	.st0{fill:#202D4C;}
	.st1{fill:#1F2D4C;}
</style>
<g>
	<path class="st0" d="M90.7,54.2h-10L79,60.7h-9.8L79.9,28h12l10.7,32.7H92.4L90.7,54.2z M82.5,47.4h6.5l-3.1-11.9h-0.2L82.5,47.4z"
		/>
	<path class="st0" d="M142.1,60.7h-8.4V41.8h-0.2l-7.4,18.5H121l-7.4-18.5h-0.2v18.9h-8.4V28h11.1l7.3,19.1h0.2L131,28h11.1V60.7z"
		/>
	<path class="st0" d="M147.1,60.7V28h16c6.7,0,10.6,3.1,10.6,8.1c0,3.8-2.9,6.6-6.6,7.1v0.2c4.4,0.1,8.1,3.4,8.1,7.8
		c0,5.7-4.5,9.5-11.5,9.5H147.1z M156.7,41.1h3.7c2.5,0,4-1.3,4-3.3c0-2-1.4-3.2-3.9-3.2h-3.8V41.1z M160.8,54.1
		c3,0,4.7-1.3,4.7-3.8c0-2.3-1.7-3.7-4.6-3.7h-4.2v7.5H160.8z"/>
	<path class="st0" d="M201.8,60.7h-23V28h23v7.6h-13.4v5.3H201v6.9h-12.6v5.3h13.4V60.7z"/>
	<path class="st0" d="M229.1,60.7h-22.4V28h9.6v25h12.8V60.7z"/>
	<path class="st0" d="M231.9,60.7V28h9.6v32.7H231.9z"/>
</g>
<g>
	<g>
		<path class="st1" d="M58.3,65.9H9.8V17.4h48.5V65.9z M12.3,63.4h43.5V19.9H12.3V63.4z"/>
	</g>
	<g>
		<rect x="11.8" y="29.3" class="st1" width="44.4" height="2.5"/>
	</g>
	<g>
		<rect x="11.8" y="40.4" class="st1" width="44.4" height="2.5"/>
	</g>
	<g>
		<rect x="32.8" y="41.7" class="st1" width="2.5" height="22.3"/>
	</g>
	<g>
		<rect x="26.5" y="50.8" class="st1" width="2.5" height="5.5"/>
	</g>
	<g>
		<rect x="39.2" y="50.8" class="st1" width="2.5" height="5.5"/>
	</g>
	<g>
		<rect x="11.8" y="24.7" transform="matrix(0.3581 0.9337 -0.9337 0.3581 34.3394 2.037)" class="st1" width="7.7" height="2.5"/>
	</g>
	<g>
		<rect x="16.8" y="24.7" transform="matrix(0.358 0.9337 -0.9337 0.358 37.506 -2.562)" class="st1" width="7.7" height="2.5"/>
	</g>
	<g>
		<rect x="21.7" y="24.7" transform="matrix(0.358 0.9337 -0.9337 0.358 40.6698 -7.1632)" class="st1" width="7.7" height="2.5"/>
	</g>
	<g>
		<rect x="31" y="26.7" class="st1" width="6.8" height="2.5"/>
	</g>
	<g>
		<rect x="50.7" y="31.9" transform="matrix(0.8015 0.598 -0.598 0.8015 32.214 -23.7926)" class="st1" width="2.5" height="9.5"/>
	</g>
	<g>
		<rect x="45" y="31.9" transform="matrix(0.8015 0.598 -0.598 0.8015 31.0894 -20.4049)" class="st1" width="2.5" height="9.5"/>
	</g>
	<g>
		<rect x="39.4" y="31.9" transform="matrix(0.8015 0.598 -0.598 0.8015 29.9649 -17.0172)" class="st1" width="2.5" height="9.5"/>
	</g>
	<g>
		<rect x="32.3" y="32.4" transform="matrix(0.5305 0.8477 -0.8477 0.5305 47.4759 -10.862)" class="st1" width="2.5" height="10"/>
	</g>
</g>
</svg>
