<?xml version="1.0" encoding="UTF-8" standalone="no"?>
<svg width="24px" height="24px" viewBox="0 0 24 24" version="1.1" xmlns="http://www.w3.org/2000/svg" xmlns:xlink="http://www.w3.org/1999/xlink" xmlns:sketch="http://www.bohemiancoding.com/sketch/ns">
    <!-- Generator: Sketch 3.3 (11970) - http://www.bohemiancoding.com/sketch -->
    <title>fb</title>
    <desc>Created with Sketch.</desc>
    <defs></defs>
    <g id="5.TrainingCraft" stroke="none" stroke-width="1" fill="none" fill-rule="evenodd" sketch:type="MSPage">
        <g id="Regular-training-item" sketch:type="MSArtboardGroup" transform="translate(-875.000000, -1350.000000)" fill-opacity="0.200000003" fill="#01303E">
            <g id="share" sketch:type="MSLayerGroup" transform="translate(875.000000, 1350.000000)">
                <path d="M0,2.00494659 C0,0.897645164 0.897026226,0 2.00494659,0 L21.9950534,0 C23.1023548,0 24,0.897026226 24,2.00494659 L24,21.9950534 C24,23.1023548 23.1029738,24 21.9950534,24 L2.00494659,24 C0.897645164,24 0,23.1029738 0,21.9950534 L0,2.00494659 Z M16.6065,9.35 L13.5665546,9.35 L13.5665546,7.43726316 C13.5665546,6.76273684 14.0530688,6.53726316 14.4176984,6.53726316 L16.6065,6.53726316 L16.6065,3.5 L13.5665546,3.5 C10.2818158,3.5 9.55255667,5.75 9.55255667,7.32547368 L9.55255667,9.35 L7.6065,9.35 L7.6065,12.5 L9.55255667,12.5 L9.55255667,21.5 L13.5665546,21.5 L13.5665546,12.5 L16.2418704,12.5 L16.6065,9.35 Z" id="fb" sketch:type="MSShapeGroup"></path>
            </g>
        </g>
    </g>
</svg>