<?xml version="1.0" encoding="UTF-8" standalone="no"?>
<svg width="24px" height="24px" viewBox="0 0 24 24" version="1.1" xmlns="http://www.w3.org/2000/svg" xmlns:xlink="http://www.w3.org/1999/xlink" xmlns:sketch="http://www.bohemiancoding.com/sketch/ns">
    <!-- Generator: Sketch 3.3 (11970) - http://www.bohemiancoding.com/sketch -->
    <title>g plus</title>
    <desc>Created with Sketch.</desc>
    <defs></defs>
    <g id="5.TrainingCraft" stroke="none" stroke-width="1" fill="none" fill-rule="evenodd" sketch:type="MSPage">
        <g id="Regular-training-item" sketch:type="MSArtboardGroup" transform="translate(-943.000000, -1350.000000)" fill-opacity="0.200000003" fill="#01303E">
            <g id="share" sketch:type="MSLayerGroup" transform="translate(875.000000, 1350.000000)">
                <path d="M68,2.00494659 C68,0.897645164 68.8970262,0 70.0049466,0 L89.9950534,0 C91.1023548,0 92,0.897026226 92,2.00494659 L92,21.9950534 C92,23.1023548 91.1029738,24 89.9950534,24 L70.0049466,24 C68.8976452,24 68,23.1029738 68,21.9950534 L68,2.00494659 Z M80.4996654,13.329535 L79.620331,12.6466363 C79.3525806,12.4245074 78.9861854,12.1313485 78.9861854,11.5947801 C78.9861854,11.0559343 79.3525806,10.7133106 79.670294,10.3961666 C80.6946777,9.58985498 81.7179937,8.73194346 81.7179937,6.92359635 C81.7179937,5.06421867 80.5480626,4.08623938 79.9872957,3.62198213 L81.4992099,3.62198213 L83.0859975,2.62499983 L78.2784475,2.62499983 C76.959268,2.62499983 75.0581833,2.93716177 73.6663368,4.08623938 C72.6170428,4.99112466 72.1055271,6.23913185 72.1055271,7.36258741 C72.1055271,9.26950823 73.5699694,11.2026916 76.1554474,11.2026916 C76.3998533,11.2026916 76.6668208,11.1787066 76.9356388,11.1537251 C76.8148593,11.4475245 76.6927275,11.6921439 76.6927275,12.1074346 C76.6927275,12.8647084 77.0820403,13.3293215 77.425091,13.7690243 C76.3266169,13.8447517 74.2755721,13.9662429 72.7634443,14.8956114 C71.3236988,15.7519572 70.8852771,16.9981851 70.8852771,17.8779465 C70.8852771,19.6885711 72.5920613,21.375 76.1306795,21.375 C80.3273572,21.375 82.5487174,19.0531444 82.5487174,16.7543486 C82.5494292,15.0652863 81.5736562,14.2341356 80.4996654,13.329535 L80.4996654,13.329535 Z M77.3033863,10.5175154 C75.2040154,10.5175154 74.2528681,7.80364248 74.2528681,6.16596667 C74.2528681,5.52833357 74.3735053,4.87020284 74.7888671,4.35605377 C75.180315,3.86645916 75.8619327,3.54867461 76.4982847,3.54867461 C78.5221416,3.54867461 79.5717915,6.28703084 79.5717915,8.04811951 C79.5717915,8.48874753 79.5232519,9.26950823 78.9621291,9.83418967 C78.5695424,10.2255664 77.9129063,10.5175154 77.3033863,10.5175154 L77.3033863,10.5175154 Z M77.327229,20.3504028 C74.7166983,20.3504028 73.0332587,19.1015416 73.0332587,17.3652209 C73.0332587,15.629256 74.5940684,15.042013 75.1313485,14.8476413 C76.1554474,14.5028824 77.4735594,14.4548411 77.693482,14.4548411 C77.9374608,14.4548411 78.0595214,14.4548411 78.2536795,14.4793955 C80.1097121,15.7999985 80.9153831,16.4584851 80.9153831,17.708841 C80.9153831,19.2227481 79.670294,20.3504028 77.327229,20.3504028 L77.327229,20.3504028 Z M86.6617676,14.1610416 L86.6617676,11.701254 L89.1147227,11.701254 L89.1147227,10.4802923 L86.6617676,10.4802923 L86.6617676,8.03530848 L85.4541152,8.03530848 L85.4541152,10.4802923 L83.0132594,10.4802923 L83.0132594,11.701254 L85.4541152,11.701254 L85.4541152,14.1610416 L86.6617676,14.1610416 Z" id="g-plus" sketch:type="MSShapeGroup"></path>
            </g>
        </g>
    </g>
</svg>