<?xml version="1.0" encoding="UTF-8" standalone="no"?>
<svg width="24px" height="24px" viewBox="0 0 24 24" version="1.1" xmlns="http://www.w3.org/2000/svg" xmlns:xlink="http://www.w3.org/1999/xlink" xmlns:sketch="http://www.bohemiancoding.com/sketch/ns">
    <!-- Generator: Sketch 3.3 (11970) - http://www.bohemiancoding.com/sketch -->
    <title>vk</title>
    <desc>Created with Sketch.</desc>
    <defs></defs>
    <g id="5.TrainingCraft" stroke="none" stroke-width="1" fill="none" fill-rule="evenodd" sketch:type="MSPage">
        <g id="Regular-training-item" sketch:type="MSArtboardGroup" transform="translate(-909.000000, -1350.000000)" fill-opacity="0.200000003" fill="#01303E">
            <g id="share" sketch:type="MSLayerGroup" transform="translate(875.000000, 1350.000000)">
                <path d="M56.5306122,0 L35.4693878,0 C34.6578939,0 34,0.656553971 34,1.46639511 L34,22.4847251 C34,23.2945662 34.6578939,23.9511202 35.4693878,23.9511202 L56.5306122,23.9511202 C57.3421061,23.9511202 58,23.2945662 58,22.4847251 L58,1.46639511 C58,0.656553971 57.3421061,0 56.5306122,0 Z M46.8661061,9.75621996 C47.0961143,9.48078208 47.2111673,8.89251324 47.2111673,8.57978004 C47.2111673,7.73088391 46.6741061,7.34287576 45.6003755,7.34287576 L43.8167347,7.34287576 L43.8167347,10.169499 L45.680898,10.169499 C46.2406857,10.1694501 46.6358531,10.0317556 46.8661061,9.75621996 Z M51.517649,17.9134338 C50.8004408,18.8032912 49.6786122,19.5749084 47.3315102,19.5749084 L39.8530612,19.5749084 L39.8530612,4.32733198 L46.9811102,4.32733198 C48.6377959,4.32733198 49.8457306,4.73318126 50.6051102,5.54492872 C51.3643429,6.35667617 51.7440816,6.98722607 51.7440816,8.02997963 C51.7440816,8.78952342 51.5235755,9.47711609 51.0826122,10.0915845 C50.6414531,10.706053 49.984,10.9601303 49.1094694,11.1910876 C51.1419265,11.6677149 52.5934857,12.9891324 52.5934857,14.8805377 C52.5934857,16.0126436 52.2347592,17.0235764 51.517649,17.9134338 Z M45.9819755,13.4089124 L43.7959184,13.4089124 L43.7959184,16.1792261 L46.1430204,16.1792261 C46.7257796,16.1792261 47.1535673,16.039723 47.4259918,15.7602281 C47.6981224,15.4808798 47.8344327,15.1665336 47.8344327,14.8163585 C47.8344327,14.4662811 47.7018449,14.1443096 47.4374041,13.8501018 C47.1727673,13.5560407 46.6875265,13.4089124 45.9819755,13.4089124 Z" id="vk" sketch:type="MSShapeGroup"></path>
            </g>
        </g>
    </g>
</svg>