<?xml version="1.0" encoding="UTF-8"?><!DOCTYPE svg PUBLIC "-//W3C//DTD SVG 1.1//EN" "http://www.w3.org/Graphics/SVG/1.1/DTD/svg11.dtd"><svg xmlns="http://www.w3.org/2000/svg" xmlns:xlink="http://www.w3.org/1999/xlink" xmlns:sketch="http://www.bohemiancoding.com/sketch/ns"><symbol id="icon--like" viewBox="0 0 100 100">
<g>
	<path d="M82.6,83.5c-5.8-0.8-12.4-1.1-19.3-1.4c-6-0.3-12.4-0.6-18.4-1.3c1.7-1.9,2.6-4.5,2.6-7.1c0-1-0.1-1.8-0.3-2.5
		c2.2-1.1,3.6-3.3,3.8-6.1c0.1-1.8-0.3-3.6-1.3-5.2c2.5-1.1,4.2-3.3,4.5-6.2c0.4-3.6-1.5-7.9-5.5-8.8c-0.1,0-0.2,0-0.2-0.1
		c-3.9-6.4,0.6-21.9,8.3-28.2c1.3-1.1,3.3-2.3,5-2.1c0,0,0,0,0.1,0c1.2,0.2,2.2,1.2,2.8,1.9c-0.5,1.4-1.2,3.9-2,8.3
		c-2.5,15,8.2,29.6,24.3,33.5C86.5,61.2,85.4,67.8,82.6,83.5 M48.4,53.8c-0.5,1.4-1.5,2.1-3.4,2c-8.8-0.3-25-5.3-27-7.8
		c-1.4-1.7,0.3-4.1,1.9-6.2c0.2-0.3,0.4-0.5,0.5-0.7c2.8-3.8,7.1-7.4,10.2-6.9c0,0,0.1,0,0.1,0c2.9,0.6,7.9,2,10.7,2.8
		c-0.1,2.2,0.1,4.3,0.5,6.2c-2.9-0.8-5.3-1.6-6.2-2c-0.6-0.6-1.6-1-2.5-0.9c-1.6,0.1-2.7,1.3-2.4,2.7c0.2,1,0.6,3.2,16.8,6.7
		C48,50,48.9,51.9,48.4,53.8 M43.6,66.9c-9.1-0.5-25-5.3-27-7.8c-1.2-1.5-0.1-3.5,1.3-5.3c3.2,1.6,7.5,3,11.9,4.2
		c0.2,0.1,0.5,0.3,0.8,0.3c4.2,1.2,8,2.1,12.9,2.7c1.2,0.2,1.9,2,1.8,3.5C45.3,64.8,45.1,67,43.6,66.9 M40.8,77.1
		c-0.9,1.4-1.8,1.4-2.1,1.4c-6.1,0-17.6-4-18.8-6.2c-0.9-1.6,0.1-3.8,1-5.5c2.7,1,5.7,1.9,8.7,2.6c0,0,0,0,0.1,0
		c1.2,0.4,7.9,2,12,2.6C41.9,73.1,41.9,75.4,40.8,77.1 M93.7,54.7l-0.1-0.1l-3.1-0.5C76,51.7,66.1,39,68.3,25.8c1.1-6.3,2-8,2-8
		l0.8-1.1l-0.6-1.2c-0.3-0.5-2.6-4.7-7.5-5.7c-3.3-0.7-6.8,0.4-10.2,3.2c-5,4.1-9.1,11.7-10.7,19.1c-3-0.9-7.5-2.1-10.4-2.7
		c-0.1,0-0.2,0-0.3-0.1c-7.4-1.2-13.5,5.8-15.8,8.9c-0.1,0.2-0.3,0.3-0.4,0.6c-1.7,2.1-5.6,7.1-1.8,11.8C11.5,53,8.4,57.6,12,61.9
		c0.7,0.9,2,1.8,3.6,2.7c-1.4,2.5-3,6.3-0.9,9.9c0.2,0.4,0.6,0.8,0.9,1.2c0.1,0.2,0.2,0.3,0.4,0.4c5.3,4.8,12.9,7.4,21.7,8.9
		c8,1.3,16.8,1.8,25.5,2.2c7.8,0.4,15.2,0.7,21.3,1.8l3.2,0.5L93.7,54.7z"/>
</g>
</symbol><symbol id="icon--man-1" viewBox="0 0 100 100">
<g>
	<path d="M37.3,18.8c-0.4-0.4-0.9-0.6-1.4-0.9c-0.6-0.2-1.2-0.3-1.8-0.3c-0.6,0-1.1,0.1-1.5,0.3c-0.4,0.2-0.8,0.4-1.1,0.7
		c-0.3,0.3-0.5,0.6-0.7,1c-0.2,0.4-0.2,0.8-0.2,1.2c0,0.5,0.1,0.9,0.2,1.3c0.1,0.3,0.3,0.6,0.6,0.9c0.2,0.2,0.5,0.4,0.8,0.6
		c0.3,0.1,0.6,0.3,0.9,0.4c0.3,0.1,0.6,0.2,0.9,0.3c0.3,0.1,0.6,0.2,0.8,0.3c0.2,0.1,0.4,0.3,0.6,0.5c0.1,0.2,0.2,0.4,0.2,0.7
		c0,0.5-0.2,0.9-0.5,1.2c-0.3,0.3-0.8,0.4-1.4,0.4c-0.4,0-0.7-0.1-1-0.2c-0.3-0.1-0.5-0.2-0.7-0.3c-0.2-0.1-0.4-0.2-0.5-0.3
		c-0.1-0.1-0.3-0.2-0.4-0.2c-0.1,0-0.2,0-0.3,0.1c-0.1,0-0.1,0.1-0.2,0.2l-0.6,1c0.2,0.2,0.5,0.4,0.7,0.6s0.6,0.3,0.9,0.5
		c0.3,0.1,0.6,0.2,1,0.3c0.3,0.1,0.7,0.1,1,0.1c0.6,0,1.2-0.1,1.6-0.3c0.5-0.2,0.9-0.4,1.2-0.8c0.3-0.3,0.6-0.7,0.7-1.1
		c0.2-0.4,0.3-0.9,0.3-1.4c0-0.5-0.1-0.8-0.2-1.2c-0.1-0.3-0.3-0.6-0.6-0.8c-0.2-0.2-0.5-0.4-0.8-0.5c-0.3-0.1-0.6-0.3-0.9-0.4
		c-0.3-0.1-0.6-0.2-0.9-0.3c-0.3-0.1-0.6-0.2-0.8-0.3c-0.2-0.1-0.4-0.3-0.6-0.4c-0.1-0.2-0.2-0.4-0.2-0.6c0-0.2,0-0.4,0.1-0.6
		c0.1-0.2,0.2-0.3,0.3-0.4c0.1-0.1,0.3-0.2,0.5-0.3c0.2-0.1,0.5-0.1,0.7-0.1c0.3,0,0.6,0,0.8,0.1c0.2,0.1,0.4,0.2,0.6,0.3
		c0.2,0.1,0.3,0.2,0.4,0.3c0.1,0.1,0.2,0.1,0.3,0.1c0.1,0,0.2,0,0.3-0.1c0.1,0,0.1-0.1,0.2-0.2L37.3,18.8z"/>
	<path d="M48.6,17.8h-2.1v4.7h-5.2v-4.7h-2.1v11h2.1V24h5.2v4.8h2.1V17.8z"/>
	<path d="M61.4,21.7c-0.1-0.5-0.3-0.9-0.5-1.4c-0.2-0.4-0.5-0.8-0.8-1.1c-0.3-0.3-0.7-0.6-1.1-0.9c-0.4-0.2-0.9-0.4-1.4-0.5
		c-0.5-0.1-1-0.2-1.6-0.2c-0.8,0-1.6,0.1-2.3,0.4c-0.7,0.3-1.3,0.7-1.8,1.2c-0.5,0.5-0.9,1.1-1.1,1.8c-0.3,0.7-0.4,1.4-0.4,2.2
		c0,0.8,0.1,1.6,0.4,2.2c0.3,0.7,0.7,1.3,1.1,1.8c0.5,0.5,1.1,0.9,1.8,1.2c0.7,0.3,1.4,0.4,2.3,0.4c0.8,0,1.6-0.1,2.3-0.4
		c0.7-0.3,1.3-0.7,1.8-1.2c0.5-0.5,0.9-1.1,1.1-1.8c0.3-0.7,0.4-1.4,0.4-2.2C61.6,22.7,61.6,22.2,61.4,21.7z M59.3,24.9
		c-0.2,0.5-0.4,0.9-0.7,1.2c-0.3,0.3-0.7,0.6-1.1,0.8c-0.4,0.2-0.9,0.3-1.5,0.3c-0.5,0-1-0.1-1.5-0.3c-0.4-0.2-0.8-0.4-1.1-0.8
		c-0.3-0.3-0.5-0.7-0.7-1.2c-0.2-0.5-0.2-1-0.2-1.6c0-0.6,0.1-1.1,0.2-1.6c0.2-0.5,0.4-0.9,0.7-1.2c0.3-0.3,0.7-0.6,1.1-0.8
		c0.4-0.2,0.9-0.3,1.5-0.3c0.5,0,1,0.1,1.5,0.3c0.4,0.2,0.8,0.4,1.1,0.8c0.3,0.3,0.5,0.7,0.7,1.2c0.2,0.5,0.2,1,0.2,1.6
		C59.5,23.9,59.4,24.4,59.3,24.9z"/>
	<path d="M67,24.9c0.7,0,1.3-0.1,1.9-0.3c0.5-0.2,1-0.4,1.3-0.7c0.4-0.3,0.6-0.7,0.8-1.1c0.2-0.4,0.3-0.9,0.3-1.5
		c0-0.5-0.1-1-0.3-1.4c-0.2-0.4-0.4-0.8-0.8-1.1c-0.4-0.3-0.8-0.6-1.3-0.7c-0.5-0.2-1.2-0.3-1.9-0.3h-3.6v11h2.1v-3.9H67z
		 M65.5,19.3H67c0.4,0,0.7,0,1,0.1c0.3,0.1,0.5,0.2,0.7,0.4c0.2,0.2,0.3,0.4,0.4,0.6c0.1,0.2,0.1,0.5,0.1,0.8c0,0.3,0,0.6-0.1,0.8
		c-0.1,0.3-0.2,0.5-0.4,0.6c-0.2,0.2-0.4,0.3-0.7,0.4c-0.3,0.1-0.6,0.1-1,0.1h-1.5V19.3z"/>
	<path d="M46.6,81.4h26.7c0.7,0,1.3-0.6,1.3-1.4V49.2c0-0.8-0.6-1.4-1.3-1.4H46.6c-0.7,0-1.3,0.6-1.3,1.4V80
		C45.3,80.8,45.9,81.4,46.6,81.4z M48.5,51h22.8v27.2H48.5V51z"/>
	<path d="M66.7,57.5c-0.6-0.3-1.3-0.2-1.7,0.4L58.5,69c-0.3,0.6-0.2,1.3,0.4,1.7c0.2,0.1,0.4,0.2,0.6,0.2c0.4,0,0.8-0.2,1-0.6
		l6.6-11.1C67.5,58.6,67.3,57.8,66.7,57.5z"/>
	<path d="M65.2,67.2c-0.6-0.3-1.3-0.2-1.7,0.4l-3.7,6.1c-0.3,0.6-0.2,1.3,0.4,1.7c0.2,0.1,0.4,0.2,0.6,0.2c0.4,0,0.8-0.2,1-0.6
		l3.7-6.1C65.9,68.3,65.7,67.6,65.2,67.2z"/>
	<path d="M37.4,75.8v-5.4c0-0.7-0.5-1.2-1.2-1.2c-0.7,0-1.2,0.5-1.2,1.2v5.4c0,0.7,0.5,1.2,1.2,1.2C36.8,77,37.4,76.4,37.4,75.8z"/>
	<path d="M81.5,41.3c0-1.3-1.1-2.4-2.4-2.4h-5V36h5.7c0.7,0,1.3-0.6,1.3-1.4V12.4c0-0.8-0.6-1.4-1.3-1.4H20.9
		c-0.7,0-1.3,0.6-1.3,1.4v22.1c0,0.8,0.6,1.4,1.3,1.4h6.1v2.9h-5c-1.3,0-2.4,1.1-2.4,2.4v44.2c0,1.3,1.1,2.4,2.4,2.4l5.7,0
		c1.7,0,2.3-1.1,2.3-2.1V58h9.2l0,25.6c0,0,0,2.3,0,2.3c0,1.7,1,2.2,2.4,2.2l37.5,0c1.3,0,2.4-1.1,2.4-2.4L81.5,41.3L81.5,41.3z
		 M22.8,32.7V14.3h55v18.4H22.8z M70.8,36v2.9H30.2V36H70.8z M42.3,84.7V56.2c0-0.8-0.6-1.4-1.3-1.4H27.9c-0.7,0-1.3,0.6-1.3,1.4
		l0,28.6h-1h-1h-1.9V42.1h55.5v42.6L42.3,84.7z"/>
	<path d="M39.8,47.7h-11c-0.9,0-1.7,0.8-1.7,1.7c0,0.9,0.8,1.7,1.7,1.7h11c0.9,0,1.7-0.8,1.7-1.7C41.5,48.5,40.7,47.7,39.8,47.7z"/>
</g>
</symbol><symbol id="icon--man-2" viewBox="0 0 100 100">
<g>
	<path d="M46,51.1c0.9,0,1.5-0.7,1.5-1.6V42c0-0.9-0.7-1.6-1.5-1.6c-0.9,0-1.5,0.7-1.5,1.6v7.4C44.5,50.4,45.1,51.1,46,51.1z"/>
	<path d="M74.8,11H25.2c-4.3,0-7.7,3.6-7.7,8.1V89h65V19.1C82.5,14.6,79,11,74.8,11z M79.4,19.1v6.6h-7.7v-1.4v-2v0h-1.9v0H66H64v2
		v1.4h-0.9v-1.4v-2v0h-1.9v0h-3.8h-1.9v2v1.4h-4V14.2h23.2C77.3,14.2,79.4,16.4,79.4,19.1z M51.5,29h4v1.3h1.9V29h3.8v8.4H54v2h22.9
		v-2h-5.3V29h7.7v50.3H51.5V29z M61.2,25.7h-3.8v-1.4h3.8V25.7z M66,30.3V29h3.8v8.4h-6.6V29H64v1.3H66z M69.7,25.7H66v-1.4h3.8
		V25.7z M25.2,14.2h23.2v65H20.6V19.1C20.6,16.4,22.7,14.2,25.2,14.2z M20.6,85.7v-3.2h58.8v3.2H20.6z"/>
</g>
</symbol><symbol id="icon--man-3" viewBox="0 0 100 100">
<g>
	<path d="M91,34.4l-18.9-19c-1.8-1.8-4.9-1.8-6.8,0l-9.2,9.3l-6.7,6.7l-5.3-5.3c0,0,0,0-0.1-0.1c0,0,0,0-0.1-0.1l-9.3-9.4
		c-1.9-1.9-5.2-1.9-7.1,0l-18.6,19c-1.9,1.9-1.9,5.2,0,7.1l9.3,9.4c0,0,0,0,0.1,0.1c0,0,0,0,0.1,0.1l8.7,8.8l-0.3,0.3
		c-0.2,0.2-0.3,0.4-0.4,0.6c-0.9,0.9-1.4,2.1-1.4,3.4c0,1.3,0.5,2.5,1.4,3.4l15.4,15.5c0.9,0.9,2.1,1.4,3.3,1.4
		c1.3,0,2.5-0.5,3.3-1.4l0.9-0.9l1.5,1.5l0.1,0.1c0.5,0.5,1.6,1.1,2.9,1.1c0.9,0,2-0.2,3.3-1.5l15.2-15.4c2.6-2.6,1.8-5.3,0.3-7
		l-1.2-1.2l10.3-10.4l9.2-9.3c0.9-0.9,1.4-2.2,1.4-3.5C92.4,36.6,91.9,35.3,91,34.4z M11.7,38.3l18.8-18.9c0.2-0.2,0.4-0.3,0.8-0.3
		c0.3,0,0.5,0.1,0.8,0.3l7.9,8L19.6,47.7l-7.9-8C11.3,39.4,11.3,38.7,11.7,38.3z M45,81.6c-0.1,0-0.3,0-0.5-0.2L29.1,65.9
		c-0.2-0.2-0.2-0.4-0.2-0.5s0-0.3,0.2-0.5l0.5-0.5l0,0l1.1-1.1l2.5-2.5l0.1-0.1c0.1-0.1,0.3-0.1,0.4-0.1c0.1,0,0.3,0,0.5,0.2
		l15.4,15.5c0.3,0.3,0.3,0.9,0,1.1l-1.8,1.8l-2.3,2.3C45.4,81.6,45.1,81.6,45,81.6z M69.5,66.2L54.3,81.7C53.9,82,53.8,82,53.7,82
		c0,0-0.1,0-0.2-0.1l-1.4-1.4l0.3-0.3l0,0c0.1-0.1,0.2-0.2,0.3-0.4c0.1-0.1,0.2-0.2,0.3-0.3c0.1-0.1,0.1-0.2,0.1-0.3
		c0.1-0.2,0.2-0.3,0.3-0.5l0,0c0.6-1.7,0.3-3.8-1.1-5.2L37.1,57.8c-0.2-0.2-0.4-0.4-0.8-0.6C36.2,57,36.1,57,36,57
		c-0.2-0.1-0.3-0.2-0.5-0.3c-0.1,0-0.2-0.1-0.3-0.1c-0.2-0.1-0.3-0.1-0.5-0.1c-0.1,0-0.2,0-0.3,0c-0.2,0-0.4-0.1-0.6-0.1
		c-0.2,0-0.3,0-0.5,0c-0.1,0-0.3,0-0.4,0c-0.3,0-0.5,0.1-0.8,0.2h-0.1c-0.5,0.2-1.1,0.5-1.6,1l-0.3,0.3l-7.4-7.5l20.3-20.1l3.9,3.9
		L35.9,45c-1.4,1.4-2,3.9,0,5.9l4.2,4.2c0.2,0.2,0.4,0.3,0.6,0.4c0.6,0.4,1.4,0.6,2.1,0.6c0.2,0,0.4,0,0.8-0.1c0,0,0,0,0.1,0
		c0.2,0,0.4-0.1,0.6-0.2h0.1c0.2-0.1,0.4-0.2,0.6-0.3c0,0,0.1,0,0.1-0.1c0.2-0.1,0.4-0.3,0.6-0.5l7-7l16.5,16.7l0.2,0.2
		C70.1,65.1,70.3,65.5,69.5,66.2z M68.7,58.1l-12.9-13l1.8-1.8c0.4-0.4,0.5-0.9,0.5-1.4c0-0.5-0.2-1-0.5-1.4c-0.8-0.8-2-0.8-2.8,0
		l-3.2,3.2l-8.4,8.4c-0.1,0.1-0.2,0.1-0.2,0.2l0,0l-4.2-4.2c-0.1-0.1-0.1-0.1-0.1-0.2c0-0.1,0.1-0.1,0.1-0.2l18.8-18.9L68.8,40
		l8.9,9L68.7,58.1z M88.2,38.4l-7.8,7.9L64.1,30l-3.9-3.9l7.8-7.9c0.2-0.2,0.4-0.2,0.6-0.2c0.1,0,0.4,0,0.6,0.2l18.9,19
		c0.2,0.2,0.2,0.4,0.2,0.6C88.4,38,88.4,38.2,88.2,38.4z"/>
</g>
</symbol><symbol id="icon--man-4" viewBox="0 0 100 100">
<g>
	<path d="M50,88c16.3,0,29.5-13.3,29.5-29.5c0-17.7-18.2-36-28-45.8c-0.8-0.8-2.2-0.8-3,0c-9.9,9.8-28.1,28.1-28.1,45.8
		C20.5,74.8,33.7,88,50,88z M50,17.1c9.6,9.6,25.3,26.2,25.3,41.4c0,13.9-11.4,25.3-25.3,25.3c-13.9,0-25.3-11.4-25.3-25.3
		C24.7,43.3,40.4,26.8,50,17.1z"/>
	<path d="M50,78.5c0.6,0,1.1-0.5,1.1-1.1c0-0.6-0.5-1.1-1.1-1.1c-9.9,0-18-8-18-18c0-0.6-0.5-1.1-1.1-1.1s-1.1,0.5-1.1,1.1
		C30,69.5,39,78.5,50,78.5z"/>
</g>
</symbol><symbol id="icon--ok" viewBox="0 0 445.1 445">
<g>
	<path d="M326.5,173.2l-28.5-28.5L194.5,248.1l-43.4-43.4l-28.5,28.5l71.9,71.9l0,0l0,0L326.5,173.2z"/>
	<path d="M224.5,19c-109.9,0-199,89.1-199,199s89.1,199,199,199c109.9,0,199-89.1,199-199C423.6,108.1,334.5,19,224.5,19z
		 M224.5,374.5c-86.4,0-156.5-70.1-156.5-156.5c0-86.4,70.1-156.5,156.5-156.5S381,131.6,381,218C381,304.4,311,374.5,224.5,374.5z"/>
</g>
<g>
	<path d="M324.5,177.2l-28.5-28.5L192.5,252.1l-43.4-43.4l-28.5,28.5l71.9,71.9l0,0l0,0L324.5,177.2z"/>
	<path d="M222.5,23c-109.9,0-199,89.1-199,199s89.1,199,199,199c109.9,0,199-89.1,199-199C421.6,112.1,332.5,23,222.5,23z
		 M222.5,378.5c-86.4,0-156.5-70.1-156.5-156.5c0-86.4,70.1-156.5,156.5-156.5S379,135.6,379,222C379,308.4,309,378.5,222.5,378.5z"/>
</g>
</symbol><symbol id="icon--scheme" viewBox="0 0 100 100">
<style type="text/css">
	.st0{fill:none;stroke:#000000;stroke-miterlimit:10;}
</style>
<g>
	<path d="M55.5,69.5h-32v-14h32V69.5z M25.5,67.5h28v-10h-28V67.5z"/>
	<path d="M70.5,69.5h-17V31h17V69.5z M55.5,67.5h13V33h-13V67.5z"/>
	<rect x="54.5" y="43" width="15" height="2"/>
	<rect x="57.5" y="47" width="2" height="4"/>
	<rect x="57.5" y="37" width="2" height="4"/>
	<path d="M45.5,47h-12V22.5h12V47z M35.5,45h8V24.5h-8V45z"/>
	<rect x="31.5" y="45" width="16" height="2"/>
	<rect x="37.5" y="52.5" width="4" height="2"/>
	<g>
		<rect x="46.5" y="56.5" width="2" height="12"/>
		<rect x="30.5" y="56.5" width="2" height="12"/>
	</g>
</g>
<g>
	<line class="st0" x1="24.8" y1="75.4" x2="69.7" y2="75.4"/>
	<polygon points="25.3,76.9 22.7,75.4 25.3,73.9 	"/>
	<polygon points="68.2,76.9 70.7,75.4 68.2,73.9 	"/>
</g>
<g>
	<line class="st0" x1="75.9" y1="67.2" x2="75.9" y2="22.2"/>
	<polygon points="77.3,66.7 75.9,69.2 74.4,66.7 	"/>
	<polygon points="77.3,23.8 75.9,21.2 74.4,23.8 	"/>
</g>
<path d="M43.3,83.3c0,0.1,0,0.2,0.1,0.2c0.1,0.1,0.1,0.1,0.2,0.1h5.2c-0.1,0.1-0.2,0.2-0.2,0.3c-0.1,0.1-0.1,0.2-0.2,0.3l-4.2,8.3
	h0.9c0.2,0,0.3,0,0.4-0.1c0.1-0.1,0.2-0.2,0.3-0.3l4.2-8.4c0-0.1,0.1-0.2,0.1-0.3c0-0.1,0.1-0.2,0.1-0.4v-0.6h-6.8V83.3z"/>
<path d="M89,45.6c-0.1-0.4-0.3-0.7-0.6-1c-0.3-0.3-0.6-0.5-1-0.6c-0.4-0.2-0.9-0.2-1.4-0.2c-0.2,0-0.5,0-0.7,0
	c-0.2,0-0.5,0.1-0.8,0.1l0.5-2.6h3.2c0.3,0,0.5-0.1,0.6-0.2c0.1-0.1,0.2-0.3,0.2-0.4v-0.5h-4.8l-0.8,4.7l0.8,0.2
	c0.3-0.1,0.6-0.2,0.8-0.2c0.3,0,0.5-0.1,0.8-0.1c0.4,0,0.7,0,1,0.1c0.3,0.1,0.5,0.2,0.7,0.4c0.2,0.2,0.3,0.4,0.4,0.6
	c0.1,0.3,0.1,0.5,0.1,0.8c0,0.4-0.1,0.7-0.2,1c-0.1,0.3-0.3,0.5-0.5,0.7c-0.2,0.2-0.4,0.4-0.7,0.5c-0.3,0.1-0.6,0.2-0.9,0.2
	c-0.3,0-0.6,0-0.8-0.1c-0.2-0.1-0.4-0.2-0.6-0.2c-0.2-0.1-0.3-0.2-0.4-0.2c-0.1-0.1-0.2-0.1-0.3-0.1c-0.1,0-0.2,0.1-0.3,0.2
	l-0.4,0.5c0.2,0.1,0.3,0.3,0.5,0.4c0.2,0.1,0.4,0.2,0.7,0.3c0.2,0.1,0.5,0.2,0.8,0.2c0.3,0.1,0.6,0.1,0.8,0.1c0.5,0,1-0.1,1.4-0.2
	c0.4-0.2,0.8-0.4,1.1-0.7c0.3-0.3,0.6-0.7,0.8-1.1c0.2-0.4,0.3-0.9,0.3-1.4C89.2,46.4,89.1,46,89,45.6z"/>
</symbol><symbol id="icon--search" viewBox="0 0 100 100">
<g>
	<path d="M14.2,13.7C25.5,2.4,44,2.3,55.4,13.5c10.8,10.6,11.5,27.4,1.9,38.7l-0.1,0.1c-1.9,2.2-2.7,3-4.3,4.1
		c-11.4,8.9-28.1,8.2-38.7-2.1C2.9,43.2,2.8,25,14.2,13.7z M19.4,49.3c8.6,8.4,22.4,8.4,31-0.1c8.5-8.5,8.5-22.1-0.1-30.5
		c-8.6-8.4-22.4-8.3-31,0.1C10.8,27.2,10.9,40.9,19.4,49.3z"/>
	<path d="M95.3,87L88,94.8l-31.8-34l5.3-5.2L95.3,87z"/>
</g>
</symbol><symbol id="icon--step-1" viewBox="-429 218 100 125">
<style type="text/css">
	.st0{fill:none;}
	.st1{fill:none;stroke:#231F20;stroke-width:2.727;stroke-linecap:round;stroke-miterlimit:10;}
</style>
<g>
	<path d="M-336.6,298.1l-18.5-15.2c-0.9-0.8-0.8-2.3,0.3-2.8l8-4.2c1.4-0.7,1.2-2.7-0.3-3.2l-42-12.5c-1.4-0.4-2.7,1.1-2,2.4
		l20.4,38.8c0.7,1.4,2.7,1.2,3.2-0.3l3-10.3c0.3-1.2,1.8-1.6,2.7-0.8l19,15.5c0.7,0.6,1.8,0.5,2.4-0.2l4-4.8
		C-335.8,299.7-335.9,298.7-336.6,298.1z"/>
	<g>
		<line class="st0" x1="-407.8" y1="246.9" x2="-415.7" y2="240.4"/>
		<line class="st1" x1="-407.8" y1="246.9" x2="-415.7" y2="240.4"/>
	</g>
	<g>
		<line class="st0" x1="-411.8" y1="256" x2="-422" y2="254.3"/>
		<line class="st1" x1="-411.8" y1="256" x2="-422" y2="254.3"/>
	</g>
	<g>
		<line class="st0" x1="-410.9" y1="265.8" x2="-420.5" y2="269.4"/>
		<line class="st1" x1="-410.9" y1="265.8" x2="-420.5" y2="269.4"/>
	</g>
	<g>
		<line class="st0" x1="-405.1" y1="273.9" x2="-411.6" y2="281.8"/>
		<line class="st1" x1="-405.1" y1="273.9" x2="-411.6" y2="281.8"/>
	</g>
	<g>
		<line class="st0" x1="-396.1" y1="277.9" x2="-397.8" y2="288.1"/>
		<line class="st1" x1="-396.1" y1="277.9" x2="-397.8" y2="288.1"/>
	</g>
	<g>
		<line class="st0" x1="-375.1" y1="252.3" x2="-365.4" y2="248.7"/>
		<line class="st1" x1="-375.1" y1="252.3" x2="-365.4" y2="248.7"/>
	</g>
	<g>
		<line class="st0" x1="-380.8" y1="244.3" x2="-374.3" y2="236.3"/>
		<line class="st1" x1="-380.8" y1="244.3" x2="-374.3" y2="236.3"/>
	</g>
	<g>
		<line class="st0" x1="-389.9" y1="240.2" x2="-388.2" y2="230.1"/>
		<line class="st1" x1="-389.9" y1="240.2" x2="-388.2" y2="230.1"/>
	</g>
	<g>
		<line class="st0" x1="-399.7" y1="241.2" x2="-403.3" y2="231.5"/>
		<line class="st1" x1="-399.7" y1="241.2" x2="-403.3" y2="231.5"/>
	</g>
</g>
</symbol><symbol id="icon--step-2" viewBox="0 0 100 100">
<g>
	<path d="M35,87.5H65c4.1,0,7.5-3.3,7.5-7.4V19.9c0-4.1-3.4-7.4-7.5-7.4H35c-4.1,0-7.5,3.3-7.5,7.4v60.1
		C27.6,84.3,30.8,87.5,35,87.5z M30,20c0-2.7,2.2-5,5-5H65c2.7,0,5,2.2,5,5v60.1c0,2.7-2.2,5-5,5H35c-2.7,0-5-2.2-5-5V20z
		 M33.2,75.9h33.4c0.7,0,1.2-0.5,1.2-1.2V25.6c0-0.7-0.5-1.2-1.2-1.2H33.2c-0.7,0-1.2,0.5-1.2,1.2v49.1C32,75.3,32.6,75.9,33.2,75.9
		z M34.5,26.8h31v46.6h-31V26.8z M45.4,20.3c0-0.7,0.5-1.2,1.2-1.2h6.5c0.7,0,1.2,0.5,1.2,1.2c0,0.7-0.5,1.2-1.2,1.2h-6.5
		C46,21.6,45.4,21,45.4,20.3z M49.9,76.6c-2.1,0-4,1.8-4,3.9c0,2.1,1.8,3.9,4,3.9c2.1,0,4-1.8,4-3.9C53.9,78.4,52.1,76.6,49.9,76.6z
		 M49.9,82c-0.9,0-1.5-0.7-1.5-1.5s0.7-1.5,1.5-1.5c0.9,0,1.5,0.7,1.5,1.5S50.7,82,49.9,82z M59,36.2L49.7,40l-9.4-3.8
		c-0.2-0.1-0.3-0.1-0.4-0.1c-0.3,0-0.6,0.1-0.9,0.3c-0.3,0.3-0.4,0.9-0.3,1.4l9.9,23.5l0,0c0,0.1,0.1,0.2,0.2,0.3c0,0,0,0,0.1,0.1
		c0.1,0.1,0.2,0.2,0.3,0.2l0,0c0.1,0.1,0.2,0.1,0.3,0.2h0.1c0.1,0,0.2,0.1,0.3,0.1c0.2,0,0.3,0,0.3-0.1h0.1c0.1,0,0.2-0.1,0.3-0.2
		l0,0c0.1-0.1,0.2-0.2,0.3-0.2c0,0,0,0,0.1-0.1c0.1-0.1,0.1-0.2,0.2-0.3l0,0l9.9-23.5c0.2-0.4,0.1-1-0.3-1.4
		C60.1,36.2,59.5,36.1,59,36.2z M48.5,54.8l-6.4-15.1l6.4,2.6V54.8z M50.9,54.8V42.2l6.4-2.6L50.9,54.8z M61.1,65.5
		c0,0.7-0.5,1.2-1.2,1.2H40.1c-0.7,0-1.2-0.5-1.2-1.2c0-0.7,0.5-1.2,1.2-1.2h19.8C60.6,64.3,61.1,64.9,61.1,65.5z"/>
</g>
</symbol><symbol id="icon--step-3" viewBox="0 0 100 100">
<g>
	<path d="M72.8,29.7h-3.9v39.1H29.7v3.9h43.1V29.7L72.8,29.7z M75.6,36.5v39.1H36.4v3.9h43.1v-43H75.6L75.6,36.5z M20.5,65.5h45v-45
		h-45V65.5z M24.4,24.4h37.2v37.1H24.4V24.4z M57.1,35.1l-2.8-2.8L38.7,47.9L31.7,41l-2.8,2.8l9.7,9.7L57.1,35.1L57.1,35.1z"/>
</g>
</symbol><symbol id="img--dance" viewBox="0 0 306.8 121">
<g>
	<path d="M224.3,98.9c-0.2-0.5-0.8-0.7-1.4-0.5c-0.2,0.1-3.9,1.8-4.7,4.6c-0.4,1.2-0.2,2.4,0.5,3.6c0.2,0.3,0.5,0.5,0.9,0.5
		c0.2,0,0.4,0,0.5-0.1c0.5-0.3,0.6-0.9,0.3-1.4c-0.4-0.7-0.5-1.3-0.3-1.9c0.5-1.6,2.8-3,3.6-3.4C224.3,100.1,224.5,99.5,224.3,98.9z
		"/>
	<path d="M215.5,98.6c-1.4,1.1-3.6,4.3-2,8c0.2,0.4,0.5,0.6,0.9,0.6c0.1,0,0.3,0,0.4-0.1c0.5-0.2,0.8-0.8,0.5-1.4
		c-1.4-3.2,1.3-5.5,1.4-5.6c0.4-0.4,0.5-1,0.1-1.4C216.6,98.3,215.9,98.2,215.5,98.6z"/>
	<path d="M284.2,99.4c0-0.6-0.5-1-1-1h-11.6c-0.6,0-1,0.5-1,1c0,0.6,0.5,1,1,1h11.6C283.8,100.4,284.2,99.9,284.2,99.4z"/>
	<path d="M284.9,103.5H276c-0.6,0-1,0.5-1,1c0,0.6,0.5,1,1,1h8.9c0.6,0,1-0.5,1-1C286,103.9,285.5,103.5,284.9,103.5z"/>
	<path d="M289.1,68.9c-0.1-0.1-0.3-0.2-0.4-0.2l-6.6-1.1c5.2-20.1,0.6-36-4.8-39.4c-1.5-0.9-2.7-1.4-3.8-1.5c0.4-0.5,0.7-1,1-1.6
		c1-1.9,1.3-4.3,0.8-6.7c-0.8-4.6-4.1-7.9-7.7-7.9c-0.3,0-0.7,0-1,0.1c-1.9,0.4-3.6,1.7-4.6,3.7c-1,1.9-1.2,4.3-0.8,6.7
		c0.8,4.3,3.7,7.5,7,7.9c-0.3,0.3-0.6,0.6-1,0.9c-6.5,3.1-11.4,0.8-11.8,0.4c-0.2-0.2-0.7-0.9-1.4-1.7c-2.3-3-4.7-6.1-6.1-7.1
		c-2.1-1.7-5.2-1.7-10.1-1.5c-2.6,0.1-4.5,1.2-5.2,3c-0.4,1.2-0.2,2.6,0.7,3.3c1.3,1.1,3.6,1,6,0.9c1.6-0.1,3.5-0.1,4.2,0.3
		c1.3,0.8,3.6,4.3,5.1,6.6c0.7,1.1,1.3,2,1.7,2.6c1.6,2.1,7.5,3.8,10.2,4.5c-2,6.4-7.6,20.3-13.6,33.2c0,0,0,0,0,0l0,0
		c-5.6,12-11.6,23.2-15.5,26.9c-1.9,0.2-7.8,1.2-7.8,4.7c0,0.9,0.4,2.5,3.5,3.3c1.1,0.3,2.4,0.4,3.8,0.4c4.2,0,9.3-1.2,10.7-3.6
		c1.3-2.3,7.6-13,9.7-16.7c0.4,0.7,0.8,1.4,1.2,2.1c2,3.4,4.1,6.9,5.6,10.7c-3.2,0.5-9.1,1.9-9.4,5c-0.1,1.7,1.9,2.8,5.9,3.2
		c0.9,0.1,2.1,0.2,3.3,0.2c4.9,0,11.4-1,11.9-4.6c0.2-1.8-1.5-5.5-4.7-11.8c-3-6-7.5-15-6.3-17.4c0.8-1.6,2.1-2.7,3.5-3.9
		c2.4-2,5-4.2,5.9-9.1c0.6-3.1,4.6-14,6.4-18.6c0.7,1.4,1.4,3.4,1.5,5.4c0.1,1.9-0.6,5.6-1.2,9.2c-0.7,4.1-1.4,7.9-1.3,10
		c0.1,1.2,0.9,3.2,5.2,3.9c3.8,0.6,10-0.1,10.9-2.3C290.1,70.9,290.4,69.8,289.1,68.9z M263.3,20.6c-0.4-1.9-0.1-3.9,0.6-5.4
		c0.7-1.4,1.8-2.4,3.1-2.6c0.2,0,0.4-0.1,0.7-0.1c2.6,0,5,2.7,5.7,6.2c0.4,1.9,0.1,3.9-0.6,5.4c-0.7,1.4-1.8,2.4-3.1,2.6
		C266.9,27.3,264,24.5,263.3,20.6z M240,105.1c-1.1,2-8.2,3.3-12.2,2.2c-0.6-0.1-1.9-0.6-1.9-1.3c0-1.3,3.7-2.4,6.3-2.7
		c0.2,0,0.4-0.1,0.6-0.3c3.8-3.4,9.1-12.9,14.3-23.6c0.5,2.5,1.8,5.2,3.3,7.9C249.3,89.3,241.5,102.4,240,105.1z M278.2,71.2
		c-1-0.3-2.2-0.8-2.3-1.8c-0.2-1.8,0.5-5.7,1.2-9.4c0.7-3.9,1.4-7.5,1.3-9.6c-0.2-4.3-2.7-8.2-2.9-8.4c-0.2-0.3-0.6-0.5-1-0.5
		c-0.4,0-0.7,0.3-0.8,0.6c-0.3,0.7-6.5,16.8-7.3,21c-0.8,4.2-2.9,6-5.2,7.9c-1.5,1.3-3.1,2.6-4.1,4.6c-1.5,3.1,1.7,9.9,6.3,19.2
		c2.2,4.4,4.7,9.3,4.5,10.6c-0.1,0.9-1.5,1.7-3.8,2.2c-5.4,1.3-12.3,0.4-13.2-0.6c0.3-1.3,4.9-2.7,8.9-3.2c0.3,0,0.6-0.2,0.7-0.5
		c0.2-0.3,0.2-0.6,0.1-0.9c-1.6-4.3-3.9-8.3-6.2-12.2c-3.5-5.9-6.6-11.1-5.4-15.4c6.6-14.2,12.4-29.2,13.9-34.4c0,0,0,0,0,0
		c0,0,0,0,0,0c0-0.1,0-0.1,0-0.2c0-0.1,0-0.1,0-0.2c0-0.1,0-0.1-0.1-0.2c0-0.1,0-0.1-0.1-0.2c0-0.1-0.1-0.1-0.1-0.1
		c0-0.1-0.1-0.1-0.1-0.1c-0.1,0-0.1-0.1-0.2-0.1c-0.1,0-0.1-0.1-0.2-0.1c0,0,0,0,0,0c0,0,0,0,0,0c-3.3-0.8-9-2.5-10.1-4
		c-0.4-0.5-1-1.4-1.7-2.5c-2.3-3.5-4.1-6.3-5.7-7.3c-1.3-0.7-3.2-0.7-5.3-0.6c-1.7,0.1-3.9,0.2-4.6-0.4c-0.2-0.2-0.3-0.6-0.1-1.1
		c0.3-1,1.6-1.6,3.3-1.6c4.4-0.1,7.2-0.2,8.7,1.1c1.2,0.9,4.1,4.7,5.7,6.7c0.7,0.9,1.2,1.6,1.4,1.8c1.3,1.4,7.4,3.5,14.4,0
		c0.1,0,0.2-0.1,0.3-0.2c2.9-2.7,4-3.7,7.6-1.4c4.3,2.7,9.2,17.9,3.6,38.2c-0.1,0.3,0,0.6,0.1,0.8c0.2,0.2,0.4,0.4,0.7,0.5l7,1.2
		C286.2,71.4,281.6,72.2,278.2,71.2z"/>
	<path d="M228.8,26.8c0.2,0.1,0.4,0.2,0.6,0.2c0.3,0,0.7-0.2,0.9-0.5c0.3-0.5,0.2-1.1-0.3-1.4c-0.5-0.3-0.8-0.7-0.9-1.3
		c-0.2-1.3,0.7-3,1.1-3.6c0.3-0.5,0.2-1.1-0.2-1.4c-0.5-0.3-1.1-0.2-1.4,0.2c-0.2,0.3-1.9,2.7-1.5,5.1
		C227.2,25.3,227.8,26.2,228.8,26.8z"/>
	<path d="M223.3,24.4c0.2,0,0.3,0,0.5-0.1c0.5-0.3,0.7-0.9,0.4-1.4c-0.9-1.7-0.3-2.3-0.3-2.4c0.4-0.3,0.5-1,0.2-1.4
		c-0.3-0.5-1-0.5-1.4-0.2c-0.1,0.1-2,1.6-0.3,5C222.6,24.2,223,24.4,223.3,24.4z"/>
	<path d="M292.6,65c-0.4-0.3-1.1-0.3-1.4,0.2c-0.3,0.5-0.3,1.1,0.2,1.4c0,0,3.6,2.8,2.1,5c-0.3,0.5-0.2,1.1,0.3,1.4
		c0.2,0.1,0.4,0.2,0.6,0.2c0.3,0,0.7-0.2,0.9-0.5C297.2,69.7,294.5,66.4,292.6,65z"/>
	<path d="M298.8,65.1c-0.4-0.4-1-0.4-1.4,0c-0.4,0.4-0.4,1,0,1.5c0,0,2,2.1,1.1,4c-0.3,0.5,0,1.1,0.5,1.4c0.1,0.1,0.3,0.1,0.5,0.1
		c0.4,0,0.7-0.2,0.9-0.6C301.9,68.2,299,65.2,298.8,65.1z"/>
	<path d="M170.6,104.9c-2.3-1-3.8-2.7-4.3-3.4c0.3-2.8,1.6-14.8,0.6-18.5c-0.8-2.7-2.9-6-5.1-9.5c-2.8-4.4-5.9-9.3-5.7-12.5
		c0.4-6.1-0.5-11.6-1.5-15.9c1,1,2,1.8,3.1,2.2c1.1,0.4,2.2,0.3,3.2-0.3c4.8-2.7,9.6-8,10.5-9c3.7-1.7,3.8-4,3.6-5.2
		c-0.4-2.2-2.7-4-4.3-4.1c-1.8-0.1-3.2,0.4-4.1,1.5c-0.9,1.2-0.9,2.7-0.8,3.6c-0.8,0.6-1.7,1.4-2.6,2.2c-0.9,0.9-2.4,2.2-3.2,2.5
		c-0.3-0.7-0.6-1.4-0.9-2.1c-2.4-5.4-5.5-12.2-11.5-10c-1.3,0.5-2.8,1-4.4,1.5c1.1-1.8,1.6-4.1,1.5-6.5c-0.2-5.6-3.8-10-8.2-10
		l-0.2,0c-2.2,0.1-4.2,1.3-5.7,3.3c-1.4,2-2.1,4.5-2,7.2c0.1,4.3,2.2,7.8,5.1,9.3c-2,0.7-3.8,1.5-5.3,2.1c-2.6,1.2-7,3.2-5.3,11.6
		c0.9,4.3,0.7,5.3,0.5,5.6c0,0-0.1,0-0.2,0c-2,0-8.2-1.7-10.7-2.5c-0.7-0.6-2.9-2.2-4.9-1.6c-0.8,0.2-1.9,1-2.5,3
		c-0.7,2.5-0.3,4.4,1.1,5.4c0.6,0.4,1.3,0.7,2.1,0.7c0.8,0,1.7-0.2,2.5-0.7c2.2,0.9,10.2,4,15.2,4c1.1,0,2-0.1,2.7-0.5
		c0.8-0.4,1.3-1,1.6-1.8c0.4-1.6,0.6-3.9,0.5-6.1c1.4,4.4,2.7,9.5,2.5,12.7c-0.1,2.4-1.8,6.1-3.5,9.6c-1.8,3.9-3.5,7.5-3.7,10.3
		c-0.3,4.5,3,15.8,3.9,18.4c-1,1.4-3.3,4.7-2.8,7.1c0.2,0.8,0.7,1.5,1.4,1.9c0.5,0.3,1.1,0.4,1.7,0.4c1.3,0,2.7-0.5,4.1-1.6
		c2.4-1.8,4.9-5.3,4-9.4c-0.2-1-0.5-2.4-0.9-3.9c-0.9-4-2.4-10.2-2.2-11.7c0.4-3.1,5.6-11.8,9.4-13c0.8-0.2,1.3-0.1,1.9,0.4
		c7.3,7.5,12,13.7,10.5,30.5c-0.1,0.5-0.4,1.9,0.5,3.5c0.9,1.7,2.9,3,5.7,3.8c3.5,0.9,8.2,1.9,9.1-0.6
		C173.5,107.3,171.8,105.4,170.6,104.9z M131,21.9c-0.1-2.2,0.5-4.3,1.6-5.9c1-1.5,2.4-2.3,3.9-2.4l0.1,0c3.1,0,5.8,3.5,5.9,7.9
		c0.1,2.2-0.5,4.3-1.6,5.9c-1,1.5-2.4,2.3-3.9,2.4l-0.1,0C133.8,29.8,131.1,26.3,131,21.9z M164.4,107.5c-2.2-0.6-3.7-1.5-4.3-2.6
		c-0.6-1-0.3-1.9-0.3-2c0-0.1,0-0.2,0.1-0.3c1.6-17.7-3.6-24.6-11.1-32.3c-1.1-1.1-2.5-1.5-4.1-1c-4.9,1.6-10.3,11-10.9,14.8
		c-0.2,1.8,0.8,6.5,2.2,12.5c0.4,1.5,0.7,2.9,0.9,3.9c0.6,2.9-1.2,5.7-3.2,7.2c-1.3,1-2.7,1.4-3.5,1c-0.2-0.1-0.3-0.2-0.3-0.4
		c-0.3-1.3,1.4-4.1,2.7-5.7c0.2-0.3,0.3-0.7,0.2-1c0-0.1-4.2-13.5-3.9-18.2c0.2-2.4,1.8-6.1,3.5-9.6c1.8-3.9,3.5-7.6,3.7-10.4
		c0.4-6.8-5.4-21.4-5.7-22c-0.2-0.6-0.9-0.8-1.4-0.6c-0.5,0.2-0.7,0.7-0.7,1.2l0,0c0,0.1,1.6,9.7,0.4,14.1c0,0.1-0.1,0.3-0.4,0.4
		c-2.5,1.2-11.5-1.7-16.5-3.8l0,0c-0.3-0.1-0.7-0.1-1,0.1c-1.1,0.7-2.1,0.8-2.6,0.4c-0.6-0.4-0.7-1.6-0.3-3.1c0.2-0.6,0.4-1.3,1-1.5
		c0.9-0.3,2.4,0.8,3,1.3l0.2,0.2l0.2,0.1c0.9,0.3,8.8,2.6,11.5,2.6c1.1,0,1.6-0.4,1.9-0.8c0.9-1.1,0.9-2.9,0-7.4
		c-1.4-6.7,1.5-8,4-9.1c3.5-1.6,9.1-3.5,14-5.2c1.8-0.6,3.5-1.2,4.9-1.7c3.8-1.4,6,2.8,8.8,8.8c0.4,0.8,0.7,1.6,1.1,2.3
		c0.3,0.6,0.7,1,1.3,1.1c1.4,0.3,2.9-1,5.2-3.1c1.1-1,2.1-2,2.8-2.3c0,0,0.1,0,0.1-0.1c0.1,0,0.1-0.1,0.2-0.1c0,0,0.1-0.1,0.1-0.2
		c0-0.1,0.1-0.1,0.1-0.2c0-0.1,0-0.1,0.1-0.2c0-0.1,0-0.1,0-0.2c0-0.1,0-0.1,0-0.2c0,0,0-0.1,0-0.1c0,0-0.4-1.6,0.2-2.5
		c0.4-0.5,1.1-0.7,2.2-0.6c0.4,0,2,1,2.2,2.3c0.2,1.3-1.3,2.3-2.6,2.9c0,0,0,0,0,0c-0.1,0-0.1,0.1-0.2,0.1c-0.1,0-0.1,0.1-0.2,0.1
		c0,0,0,0,0,0c-0.1,0.1-5.2,6-10.1,8.7c-0.4,0.2-0.9,0.3-1.4,0.1c-2.3-0.8-4.9-5-6.5-8c-0.6-1.4-1.1-2.2-1.1-2.4
		c-0.3-0.5-0.9-0.7-1.5-0.5c-0.5,0.3-0.8,0.9-0.5,1.4c0.1,0.3,0.5,1.1,1.1,2.2c1.6,3.9,4.7,12.5,4.1,22.9c-0.2,3.9,3,8.9,6.1,13.8
		c2.1,3.4,4.1,6.5,4.8,8.9c0.8,3-0.2,14-0.7,18c0,0.3,0,0.5,0.2,0.7c0.1,0.1,1.9,3,5.5,4.5c0.4,0.2,1.1,1,1.1,1.3
		C170.9,108.2,169.9,108.9,164.4,107.5z"/>
	<path d="M166.8,58.9c0.1,0,0.2,0.1,0.3,0.1c0.5,0,0.9-0.3,1.1-0.8c2.1-6.4-1.9-9.2-2-9.3c-0.5-0.3-1.2-0.2-1.5,0.3
		c-0.3,0.5-0.2,1.2,0.3,1.5c0,0,2.8,1.9,1.2,6.8C165.9,58.1,166.2,58.7,166.8,58.9z"/>
	<path d="M171.6,43.9c-0.3-0.5-1-0.7-1.5-0.3c-0.5,0.3-0.7,1-0.3,1.5c0,0.1,4.8,7.5,3.1,12.5c-0.2,0.6,0.1,1.2,0.7,1.4
		c0.1,0,0.2,0.1,0.4,0.1c0.5,0,0.9-0.3,1-0.7C176.9,52.3,171.8,44.2,171.6,43.9z"/>
	<path d="M123.1,78.8c0.3-0.5,0.1-1.2-0.5-1.5c-0.5-0.3-1.2-0.1-1.5,0.5c-0.2,0.4-4.4,8.8,0.2,13.4c0.2,0.2,0.5,0.3,0.8,0.3
		c0.3,0,0.6-0.1,0.8-0.3c0.4-0.4,0.4-1.1,0-1.6C119.5,86.2,123.1,78.8,123.1,78.8z"/>
	<path d="M115.9,77.2c-0.6-0.2-1.2,0-1.4,0.6c-0.1,0.2-2.4,6,0,10.8c0.2,0.4,0.6,0.6,1,0.6c0.2,0,0.3,0,0.5-0.1
		c0.5-0.3,0.8-0.9,0.5-1.5c-2-3.9,0-9,0-9C116.7,78.1,116.5,77.5,115.9,77.2z"/>
	<path d="M51.9,104.5c-2.1-0.9-3.4-2.5-3.9-3.1c0.4-2.6,2.2-14,1.3-17.4c-1-3.6-2.6-6.6-4.3-9.8c-0.9-1.7-1.9-3.5-2.8-5.5
		c3.3-1.6,9.9-5.4,10-9.5C52.2,55,49,44.5,45,41.3c-1.8-1.4-4.8-1.8-8-2.2c2.1-1.2,3.6-3.7,4-6.6c0.3-2.2-0.1-4.3-1-6
		c-1-1.8-2.5-2.9-4.3-3.2c-3.6-0.5-7,2.9-7.6,7.4c-0.4,3.1,0.5,5.9,2.3,7.6c-1.2-0.2-2.2-0.5-2.9-1c-2.5-1.6-5-8.2-5.1-9.1
		c-0.2-2.1,3-7.6,5.2-10.8c1.8-0.6,2.9-2.4,2.7-4.3c-0.2-1.8-1.8-3.7-4.8-3.7c0,0,0,0,0,0c-1.3,0-2.4,0.4-3.1,1.2
		c-1,1-1.1,2.4-1.1,3.1c-1.8,2.3-7.9,10.5-7,14.2c0.8,3.3,2.6,6.9,4.4,10.5c0.9,1.8,1.7,3.4,2.4,5c1.7,3.9,0.7,10.9-0.1,16.4
		c-0.4,2.3-0.7,4.6-0.8,6.4c-0.1,2.6,0.7,5.8,1.5,8.9c0.8,3,1.6,6.1,1.4,8.4c-0.1,2.2-1.2,6.2-2.2,10.1c-1,3.8-2,7.5-2.1,9.4
		c-0.1,2.2,1.5,4.1,4.9,5.6c1.1,0.5,5.7,1.8,7.5,0.4c0.6-0.5,0.9-1.2,0.8-2.1c-0.2-1.2-1.3-2.2-2.4-3.2c-0.6-0.5-1.5-1.3-1.6-1.7
		c-0.3-1.9,1.1-5.6,2.3-8.8c0.9-2.5,1.8-4.9,2-6.5c0.2-1.3,0-3.5-0.1-5.8c-0.1-2.2-0.4-5.9,0-7.1c0.1,0.1,0.2,0.1,0.3,0.3l0.3,0.3
		c6.4,6.7,10.7,11.1,7.3,27.7c-0.1,0.4-0.4,1.8,0.4,3.3c0.9,1.6,2.6,2.8,5.2,3.5c1.7,0.4,3.6,0.9,5.3,0.9c1.5,0,2.7-0.4,3.1-1.5
		C54.5,106.7,52.9,105,51.9,104.5z M30.1,31.1c0.4-3.2,2.6-5.7,4.9-5.7c0.1,0,0.3,0,0.4,0c1.1,0.2,2.1,0.9,2.8,2.1
		c0.7,1.3,1,3,0.8,4.7c-0.5,3.4-2.8,6-5.3,5.7C31.3,37.6,29.6,34.5,30.1,31.1z M46.1,106.9c-2-0.5-3.3-1.4-3.9-2.4
		c-0.5-0.9-0.3-1.8-0.3-1.8c0,0,0-0.1,0-0.1c3.6-17.7-1.2-22.7-7.8-29.5l-0.3-0.3c-0.7-0.7-1.3-1.1-1.9-1.1c-0.2,0-0.4,0-0.6,0.1
		c-1.6,0.7-1.5,3.8-1.2,9.3c0.1,2.1,0.3,4.3,0.1,5.4c-0.2,1.4-1,3.7-1.9,6.1c-1.4,3.7-2.8,7.5-2.4,9.9c0.2,1,1.2,1.9,2.2,2.9
		c0.7,0.6,1.7,1.5,1.8,2c0,0.1,0,0.1,0,0.1c-0.5,0.5-3.8,0.1-5.5-0.6c-2.5-1.1-3.7-2.4-3.7-3.7c0.1-1.7,1-5.4,2-9
		c1-4,2.1-8.1,2.3-10.5c0.2-2.6-0.7-5.9-1.5-9c-0.8-3-1.6-6-1.4-8.3c0.1-1.7,0.4-3.9,0.8-6.2c0.9-6.1,2-13,0-17.5
		c-0.7-1.6-1.6-3.3-2.5-5.1c-1.7-3.4-3.5-7-4.3-10c-0.5-2.3,3.9-9.1,6.9-12.8c0.2-0.2,0.2-0.5,0.2-0.7c0,0-0.1-1.2,0.6-2
		c0.4-0.4,0.9-0.6,1.6-0.6c0,0,0,0,0,0c1.6,0,2.6,0.7,2.8,1.9c0.1,0.9-0.3,1.9-1.5,2.2c-0.2,0.1-0.5,0.2-0.6,0.4
		c-0.6,0.9-6.2,8.9-5.8,12.5c0.1,1.4,2.9,8.6,6,10.6c2,1.3,5.4,1.6,8.9,1.9c3.4,0.3,6.9,0.6,8.5,1.9c3.4,2.7,6.4,12.6,6.3,16.1
		c-0.1,3-6.4,6.8-10.4,8.5c-0.1,0-0.1,0.1-0.2,0.1c-1.5,1.2-2.2,1.2-2.4,1.1c-0.3-0.1-0.7-0.7-1-1.7c-0.2-0.7-0.2-1.2,0-1.4
		c0.4-0.4,1.7-0.4,2.6-0.2c0.3,0.1,0.5,0,0.8-0.1c0.6-0.3,5.9-3.4,7.3-6.4c1.6-3.4-3.7-12.5-4.7-14.3c-0.2-0.4-0.7-0.6-1.1-0.5
		c-0.4,0.1-0.7,0.4-0.8,0.9c-0.2,2-0.4,3.6-0.6,4.9c-0.6,4.5-0.8,6.8-0.5,13c0,0.1,0,0.2,0.1,0.3c-0.1,0.1-0.2,0.1-0.3,0.2
		c-0.9-0.2-3-0.4-4.1,0.8c-0.8,0.8-0.9,2-0.4,3.4c0.3,1.1,1,2.5,2.3,3c1.3,0.4,2.7-0.3,3.9-1.2c0.9,2,1.9,3.8,2.8,5.6
		c1.6,3.1,3.2,6,4.1,9.4c0.8,2.7-0.7,13.2-1.4,17c0,0.2,0,0.5,0.1,0.7c0.1,0.1,1.8,2.7,5,4.2c0.4,0.2,1,1,1,1.2
		C52.1,107.5,51.2,108.3,46.1,106.9z M41.4,50.3c0.1-0.6,0.1-1.2,0.2-1.8c2,3.8,3.8,8.3,3.1,9.7c-0.6,1.2-2.3,2.7-3.9,3.8
		C40.6,56.6,40.9,54.4,41.4,50.3z"/>
	<path d="M16,97.8c0.3-0.5,0.1-1.1-0.4-1.4c-0.5-0.3-1.1-0.1-1.4,0.4c-0.2,0.3-3.7,6.6,0.2,9.9c0.2,0.2,0.4,0.2,0.7,0.2
		c0.3,0,0.6-0.1,0.8-0.4c0.4-0.4,0.3-1.1-0.1-1.4C13.1,103,15.9,97.9,16,97.8z"/>
	<path d="M10.8,97.9c0.3-0.4,0.3-1.1-0.2-1.4c-0.4-0.3-1.1-0.3-1.4,0.2c-1.4,1.9-3.3,6.3,0.1,9.9c0.2,0.2,0.5,0.3,0.7,0.3
		c0.2,0,0.5-0.1,0.7-0.3c0.4-0.4,0.4-1,0.1-1.4C7.7,102.1,10.6,98.1,10.8,97.9z"/>
	<path d="M55.1,52.6c-0.4-0.4-1.1-0.3-1.4,0.1c-0.4,0.4-0.3,1.1,0.1,1.4c1.2,1.1,1.8,2.3,1.7,3.7c-0.2,2.9-2.9,5.9-5.2,7.5
		c-0.5,0.3-0.6,1-0.2,1.4c0.2,0.3,0.5,0.4,0.8,0.4c0.2,0,0.4-0.1,0.6-0.2c2.8-2,5.9-5.4,6.1-9C57.6,55.9,56.8,54.1,55.1,52.6z"/>
	<path d="M58.2,50.2c-0.4-0.4-1.1-0.3-1.4,0.2c-0.4,0.4-0.3,1.1,0.2,1.4c0,0,4.5,3.7,2.8,7.6c-0.2,0.5,0,1.1,0.5,1.3
		c0.1,0.1,0.3,0.1,0.4,0.1c0.4,0,0.8-0.2,0.9-0.6C63.9,54.8,58.4,50.4,58.2,50.2z"/>
</g>
</symbol><symbol id="logo" viewBox="0 0 252.8 100">
<style type="text/css">
	.st0{fill:#202D4C;}
	.st1{fill:#1F2D4C;}
</style>
<g>
	<path class="st0" d="M90.7,54.2h-10L79,60.7h-9.8L79.9,28h12l10.7,32.7H92.4L90.7,54.2z M82.5,47.4h6.5l-3.1-11.9h-0.2L82.5,47.4z"/>
	<path class="st0" d="M142.1,60.7h-8.4V41.8h-0.2l-7.4,18.5H121l-7.4-18.5h-0.2v18.9h-8.4V28h11.1l7.3,19.1h0.2L131,28h11.1V60.7z"/>
	<path class="st0" d="M147.1,60.7V28h16c6.7,0,10.6,3.1,10.6,8.1c0,3.8-2.9,6.6-6.6,7.1v0.2c4.4,0.1,8.1,3.4,8.1,7.8
		c0,5.7-4.5,9.5-11.5,9.5H147.1z M156.7,41.1h3.7c2.5,0,4-1.3,4-3.3c0-2-1.4-3.2-3.9-3.2h-3.8V41.1z M160.8,54.1
		c3,0,4.7-1.3,4.7-3.8c0-2.3-1.7-3.7-4.6-3.7h-4.2v7.5H160.8z"/>
	<path class="st0" d="M201.8,60.7h-23V28h23v7.6h-13.4v5.3H201v6.9h-12.6v5.3h13.4V60.7z"/>
	<path class="st0" d="M229.1,60.7h-22.4V28h9.6v25h12.8V60.7z"/>
	<path class="st0" d="M231.9,60.7V28h9.6v32.7H231.9z"/>
</g>
<g>
	<g>
		<path class="st1" d="M58.3,65.9H9.8V17.4h48.5V65.9z M12.3,63.4h43.5V19.9H12.3V63.4z"/>
	</g>
	<g>
		<rect x="11.8" y="29.3" class="st1" width="44.4" height="2.5"/>
	</g>
	<g>
		<rect x="11.8" y="40.4" class="st1" width="44.4" height="2.5"/>
	</g>
	<g>
		<rect x="32.8" y="41.7" class="st1" width="2.5" height="22.3"/>
	</g>
	<g>
		<rect x="26.5" y="50.8" class="st1" width="2.5" height="5.5"/>
	</g>
	<g>
		<rect x="39.2" y="50.8" class="st1" width="2.5" height="5.5"/>
	</g>
	<g>
		<rect x="11.8" y="24.7" transform="matrix(0.3581 0.9337 -0.9337 0.3581 34.3394 2.037)" class="st1" width="7.7" height="2.5"/>
	</g>
	<g>
		<rect x="16.8" y="24.7" transform="matrix(0.358 0.9337 -0.9337 0.358 37.506 -2.562)" class="st1" width="7.7" height="2.5"/>
	</g>
	<g>
		<rect x="21.7" y="24.7" transform="matrix(0.358 0.9337 -0.9337 0.358 40.6698 -7.1632)" class="st1" width="7.7" height="2.5"/>
	</g>
	<g>
		<rect x="31" y="26.7" class="st1" width="6.8" height="2.5"/>
	</g>
	<g>
		<rect x="50.7" y="31.9" transform="matrix(0.8015 0.598 -0.598 0.8015 32.214 -23.7926)" class="st1" width="2.5" height="9.5"/>
	</g>
	<g>
		<rect x="45" y="31.9" transform="matrix(0.8015 0.598 -0.598 0.8015 31.0894 -20.4049)" class="st1" width="2.5" height="9.5"/>
	</g>
	<g>
		<rect x="39.4" y="31.9" transform="matrix(0.8015 0.598 -0.598 0.8015 29.9649 -17.0172)" class="st1" width="2.5" height="9.5"/>
	</g>
	<g>
		<rect x="32.3" y="32.4" transform="matrix(0.5305 0.8477 -0.8477 0.5305 47.4759 -10.862)" class="st1" width="2.5" height="10"/>
	</g>
</g>
</symbol><symbol id="sm_fb" viewBox="0 0 24 24">
    <!-- Generator: Sketch 3.3 (11970) - http://www.bohemiancoding.com/sketch -->
    <title>fb</title>
    <desc>Created with Sketch.</desc>
    
    <g id="5.TrainingCraft" stroke="none" stroke-width="1" fill="none" fill-rule="evenodd" sketch:type="MSPage">
        <g id="Regular-training-item" sketch:type="MSArtboardGroup" transform="translate(-875.000000, -1350.000000)" fill-opacity="0.200000003" fill="#01303E">
            <g id="share" sketch:type="MSLayerGroup" transform="translate(875.000000, 1350.000000)">
                <path d="M0,2.00494659 C0,0.897645164 0.897026226,0 2.00494659,0 L21.9950534,0 C23.1023548,0 24,0.897026226 24,2.00494659 L24,21.9950534 C24,23.1023548 23.1029738,24 21.9950534,24 L2.00494659,24 C0.897645164,24 0,23.1029738 0,21.9950534 L0,2.00494659 Z M16.6065,9.35 L13.5665546,9.35 L13.5665546,7.43726316 C13.5665546,6.76273684 14.0530688,6.53726316 14.4176984,6.53726316 L16.6065,6.53726316 L16.6065,3.5 L13.5665546,3.5 C10.2818158,3.5 9.55255667,5.75 9.55255667,7.32547368 L9.55255667,9.35 L7.6065,9.35 L7.6065,12.5 L9.55255667,12.5 L9.55255667,21.5 L13.5665546,21.5 L13.5665546,12.5 L16.2418704,12.5 L16.6065,9.35 Z" id="fb" sketch:type="MSShapeGroup"/>
            </g>
        </g>
    </g>
</symbol><symbol id="sm_gp" viewBox="0 0 24 24">
    <!-- Generator: Sketch 3.3 (11970) - http://www.bohemiancoding.com/sketch -->
    <title>g plus</title>
    <desc>Created with Sketch.</desc>
    
    <g id="5.TrainingCraft" stroke="none" stroke-width="1" fill="none" fill-rule="evenodd" sketch:type="MSPage">
        <g id="Regular-training-item" sketch:type="MSArtboardGroup" transform="translate(-943.000000, -1350.000000)" fill-opacity="0.200000003" fill="#01303E">
            <g id="share" sketch:type="MSLayerGroup" transform="translate(875.000000, 1350.000000)">
                <path d="M68,2.00494659 C68,0.897645164 68.8970262,0 70.0049466,0 L89.9950534,0 C91.1023548,0 92,0.897026226 92,2.00494659 L92,21.9950534 C92,23.1023548 91.1029738,24 89.9950534,24 L70.0049466,24 C68.8976452,24 68,23.1029738 68,21.9950534 L68,2.00494659 Z M80.4996654,13.329535 L79.620331,12.6466363 C79.3525806,12.4245074 78.9861854,12.1313485 78.9861854,11.5947801 C78.9861854,11.0559343 79.3525806,10.7133106 79.670294,10.3961666 C80.6946777,9.58985498 81.7179937,8.73194346 81.7179937,6.92359635 C81.7179937,5.06421867 80.5480626,4.08623938 79.9872957,3.62198213 L81.4992099,3.62198213 L83.0859975,2.62499983 L78.2784475,2.62499983 C76.959268,2.62499983 75.0581833,2.93716177 73.6663368,4.08623938 C72.6170428,4.99112466 72.1055271,6.23913185 72.1055271,7.36258741 C72.1055271,9.26950823 73.5699694,11.2026916 76.1554474,11.2026916 C76.3998533,11.2026916 76.6668208,11.1787066 76.9356388,11.1537251 C76.8148593,11.4475245 76.6927275,11.6921439 76.6927275,12.1074346 C76.6927275,12.8647084 77.0820403,13.3293215 77.425091,13.7690243 C76.3266169,13.8447517 74.2755721,13.9662429 72.7634443,14.8956114 C71.3236988,15.7519572 70.8852771,16.9981851 70.8852771,17.8779465 C70.8852771,19.6885711 72.5920613,21.375 76.1306795,21.375 C80.3273572,21.375 82.5487174,19.0531444 82.5487174,16.7543486 C82.5494292,15.0652863 81.5736562,14.2341356 80.4996654,13.329535 L80.4996654,13.329535 Z M77.3033863,10.5175154 C75.2040154,10.5175154 74.2528681,7.80364248 74.2528681,6.16596667 C74.2528681,5.52833357 74.3735053,4.87020284 74.7888671,4.35605377 C75.180315,3.86645916 75.8619327,3.54867461 76.4982847,3.54867461 C78.5221416,3.54867461 79.5717915,6.28703084 79.5717915,8.04811951 C79.5717915,8.48874753 79.5232519,9.26950823 78.9621291,9.83418967 C78.5695424,10.2255664 77.9129063,10.5175154 77.3033863,10.5175154 L77.3033863,10.5175154 Z M77.327229,20.3504028 C74.7166983,20.3504028 73.0332587,19.1015416 73.0332587,17.3652209 C73.0332587,15.629256 74.5940684,15.042013 75.1313485,14.8476413 C76.1554474,14.5028824 77.4735594,14.4548411 77.693482,14.4548411 C77.9374608,14.4548411 78.0595214,14.4548411 78.2536795,14.4793955 C80.1097121,15.7999985 80.9153831,16.4584851 80.9153831,17.708841 C80.9153831,19.2227481 79.670294,20.3504028 77.327229,20.3504028 L77.327229,20.3504028 Z M86.6617676,14.1610416 L86.6617676,11.701254 L89.1147227,11.701254 L89.1147227,10.4802923 L86.6617676,10.4802923 L86.6617676,8.03530848 L85.4541152,8.03530848 L85.4541152,10.4802923 L83.0132594,10.4802923 L83.0132594,11.701254 L85.4541152,11.701254 L85.4541152,14.1610416 L86.6617676,14.1610416 Z" id="g-plus" sketch:type="MSShapeGroup"/>
            </g>
        </g>
    </g>
</symbol><symbol id="sm_vk" viewBox="0 0 24 24">
    <!-- Generator: Sketch 3.3 (11970) - http://www.bohemiancoding.com/sketch -->
    <title>vk</title>
    <desc>Created with Sketch.</desc>
    
    <g id="5.TrainingCraft" stroke="none" stroke-width="1" fill="none" fill-rule="evenodd" sketch:type="MSPage">
        <g id="Regular-training-item" sketch:type="MSArtboardGroup" transform="translate(-909.000000, -1350.000000)" fill-opacity="0.200000003" fill="#01303E">
            <g id="share" sketch:type="MSLayerGroup" transform="translate(875.000000, 1350.000000)">
                <path d="M56.5306122,0 L35.4693878,0 C34.6578939,0 34,0.656553971 34,1.46639511 L34,22.4847251 C34,23.2945662 34.6578939,23.9511202 35.4693878,23.9511202 L56.5306122,23.9511202 C57.3421061,23.9511202 58,23.2945662 58,22.4847251 L58,1.46639511 C58,0.656553971 57.3421061,0 56.5306122,0 Z M46.8661061,9.75621996 C47.0961143,9.48078208 47.2111673,8.89251324 47.2111673,8.57978004 C47.2111673,7.73088391 46.6741061,7.34287576 45.6003755,7.34287576 L43.8167347,7.34287576 L43.8167347,10.169499 L45.680898,10.169499 C46.2406857,10.1694501 46.6358531,10.0317556 46.8661061,9.75621996 Z M51.517649,17.9134338 C50.8004408,18.8032912 49.6786122,19.5749084 47.3315102,19.5749084 L39.8530612,19.5749084 L39.8530612,4.32733198 L46.9811102,4.32733198 C48.6377959,4.32733198 49.8457306,4.73318126 50.6051102,5.54492872 C51.3643429,6.35667617 51.7440816,6.98722607 51.7440816,8.02997963 C51.7440816,8.78952342 51.5235755,9.47711609 51.0826122,10.0915845 C50.6414531,10.706053 49.984,10.9601303 49.1094694,11.1910876 C51.1419265,11.6677149 52.5934857,12.9891324 52.5934857,14.8805377 C52.5934857,16.0126436 52.2347592,17.0235764 51.517649,17.9134338 Z M45.9819755,13.4089124 L43.7959184,13.4089124 L43.7959184,16.1792261 L46.1430204,16.1792261 C46.7257796,16.1792261 47.1535673,16.039723 47.4259918,15.7602281 C47.6981224,15.4808798 47.8344327,15.1665336 47.8344327,14.8163585 C47.8344327,14.4662811 47.7018449,14.1443096 47.4374041,13.8501018 C47.1727673,13.5560407 46.6875265,13.4089124 45.9819755,13.4089124 Z" id="vk" sketch:type="MSShapeGroup"/>
            </g>
        </g>
    </g>
</symbol></svg>